<svg width="519" height="402" viewBox="0 0 519 402" fill="none" xmlns="http://www.w3.org/2000/svg">
<path d="M509.259 338.775H10.2203V339.025H509.259V338.775Z" fill="#EBEBEB"/>
<path d="M459.255 354.851H426.199V355.101H459.255V354.851Z" fill="#EBEBEB"/>
<path d="M340.803 357.569H332.13V357.818H340.803V357.569Z" fill="#EBEBEB"/>
<path d="M425.201 345.579H406.048V345.829H425.201V345.579Z" fill="#EBEBEB"/>
<path d="M105.686 347.258H62.5794V347.507H105.686V347.258Z" fill="#EBEBEB"/>
<path d="M120.897 347.258H114.579V347.507H120.897V347.258Z" fill="#EBEBEB"/>
<path d="M234.937 351.474H141.437V351.724H234.937V351.474Z" fill="#EBEBEB"/>
<path d="M246.784 294.214H54.0558C50.9119 294.214 48.3568 291.656 48.3568 288.509V17.3149C48.3568 14.1676 50.9119 11.6099 54.0558 11.6099H246.784C249.928 11.6099 252.484 14.1676 252.484 17.3149V288.509C252.474 291.656 249.918 294.214 246.784 294.214ZM54.0558 11.8596C51.0516 11.8596 48.6063 14.3075 48.6063 17.3149V288.509C48.6063 291.516 51.0516 293.964 54.0558 293.964H246.784C249.789 293.964 252.234 291.516 252.234 288.509V17.3149C252.234 14.3075 249.789 11.8596 246.784 11.8596H54.0558Z" fill="#EBEBEB"/>
<path d="M462.658 294.214H269.93C266.786 294.214 264.231 291.656 264.231 288.509V17.3149C264.231 14.1676 266.786 11.6099 269.93 11.6099H462.658C465.802 11.6099 468.358 14.1676 468.358 17.3149V288.509C468.358 291.656 465.802 294.214 462.658 294.214ZM269.94 11.8596C266.936 11.8596 264.49 14.3075 264.49 17.3149V288.509C264.49 291.516 266.936 293.964 269.94 293.964H462.668C465.673 293.964 468.118 291.516 468.118 288.509V17.3149C468.118 14.3075 465.673 11.8596 462.668 11.8596H269.94Z" fill="#EBEBEB"/>
<path d="M454.784 73.7759H212.97V307.113H454.784V73.7759Z" fill="#E0E0E0"/>
<path d="M454.784 78.0222H216.852V303.046H454.784V78.0222Z" fill="#F5F5F5"/>
<path d="M218.609 248.544V180.863H225.635V171.92L241.435 164.527V155.375H244.07V180.863H246.705V248.544H250.218V213.384H258.123V194.93H260.758V248.544H266.906V228.331H271.297V223.056H280.949V204.592H286.218V192.293H292.367V173.829H295.002V192.293H301.15V204.592H306.42V223.056H316.081V228.331H320.462V248.544H325.732V223.056H335.394V166.795H338.029V160.65H359.098V166.795H363.49V207.23H381.056V211.626H387.204V214.264H381.056V230.09H399.49V177.346H403.003V166.795H411.787V126.36H414.421V166.795H420.57V177.346H454.784V303.046H216.852V248.544H218.609Z" fill="#E6E6E6"/>
<path d="M436.499 180.103H434.014V182.591H436.499V180.103Z" fill="#F0F0F0"/>
<path d="M436.499 184.28H434.014V186.767H436.499V184.28Z" fill="#F0F0F0"/>
<path d="M436.499 200.975H434.014V203.463H436.499V200.975Z" fill="#F0F0F0"/>
<path d="M436.499 205.151H434.014V207.639H436.499V205.151Z" fill="#F0F0F0"/>
<path d="M436.499 209.328H434.014V211.816H436.499V209.328Z" fill="#F0F0F0"/>
<path d="M436.499 221.857H434.014V224.345H436.499V221.857Z" fill="#F0F0F0"/>
<path d="M436.499 226.033H434.014V228.521H436.499V226.033Z" fill="#F0F0F0"/>
<path d="M432.547 196.809H430.061V199.296H432.547V196.809Z" fill="#F0F0F0"/>
<path d="M432.547 200.975H430.061V203.463H432.547V200.975Z" fill="#F0F0F0"/>
<path d="M432.547 205.151H430.061V207.639H432.547V205.151Z" fill="#F0F0F0"/>
<path d="M432.547 209.328H430.061V211.816H432.547V209.328Z" fill="#F0F0F0"/>
<path d="M432.547 213.504H430.061V215.992H432.547V213.504Z" fill="#F0F0F0"/>
<path d="M432.547 221.857H430.061V224.345H432.547V221.857Z" fill="#F0F0F0"/>
<path d="M432.547 226.033H430.061V228.521H432.547V226.033Z" fill="#F0F0F0"/>
<path d="M428.594 180.103H426.109V182.591H428.594V180.103Z" fill="#F0F0F0"/>
<path d="M428.594 184.28H426.109V186.767H428.594V184.28Z" fill="#F0F0F0"/>
<path d="M428.594 188.456H426.109V190.944H428.594V188.456Z" fill="#F0F0F0"/>
<path d="M428.594 192.632H426.109V195.12H428.594V192.632Z" fill="#F0F0F0"/>
<path d="M428.594 196.809H426.109V199.296H428.594V196.809Z" fill="#F0F0F0"/>
<path d="M428.594 200.975H426.109V203.463H428.594V200.975Z" fill="#F0F0F0"/>
<path d="M428.594 205.151H426.109V207.639H428.594V205.151Z" fill="#F0F0F0"/>
<path d="M428.594 209.328H426.109V211.816H428.594V209.328Z" fill="#F0F0F0"/>
<path d="M428.594 213.504H426.109V215.992H428.594V213.504Z" fill="#F0F0F0"/>
<path d="M428.594 217.681H426.109V220.169H428.594V217.681Z" fill="#F0F0F0"/>
<path d="M428.594 226.033H426.109V228.521H428.594V226.033Z" fill="#F0F0F0"/>
<path d="M424.642 180.103H422.157V182.591H424.642V180.103Z" fill="#F0F0F0"/>
<path d="M424.642 184.28H422.157V186.767H424.642V184.28Z" fill="#F0F0F0"/>
<path d="M424.642 188.456H422.157V190.944H424.642V188.456Z" fill="#F0F0F0"/>
<path d="M424.642 192.632H422.157V195.12H424.642V192.632Z" fill="#F0F0F0"/>
<path d="M424.642 196.809H422.157V199.296H424.642V196.809Z" fill="#F0F0F0"/>
<path d="M424.642 200.975H422.157V203.463H424.642V200.975Z" fill="#F0F0F0"/>
<path d="M424.642 205.151H422.157V207.639H424.642V205.151Z" fill="#F0F0F0"/>
<path d="M424.642 242.729H422.157V245.217H424.642V242.729Z" fill="#F0F0F0"/>
<path d="M420.689 180.103H418.204V182.591H420.689V180.103Z" fill="#F0F0F0"/>
<path d="M420.689 184.28H418.204V186.767H420.689V184.28Z" fill="#F0F0F0"/>
<path d="M420.689 188.456H418.204V190.944H420.689V188.456Z" fill="#F0F0F0"/>
<path d="M420.689 192.632H418.204V195.12H420.689V192.632Z" fill="#F0F0F0"/>
<path d="M420.689 196.809H418.204V199.296H420.689V196.809Z" fill="#F0F0F0"/>
<path d="M420.689 200.975H418.204V203.463H420.689V200.975Z" fill="#F0F0F0"/>
<path d="M420.689 205.151H418.204V207.639H420.689V205.151Z" fill="#F0F0F0"/>
<path d="M420.689 209.328H418.204V211.816H420.689V209.328Z" fill="#F0F0F0"/>
<path d="M420.689 234.386H418.204V236.874H420.689V234.386Z" fill="#F0F0F0"/>
<path d="M420.689 238.562H418.204V241.05H420.689V238.562Z" fill="#F0F0F0"/>
<path d="M420.689 242.729H418.204V245.217H420.689V242.729Z" fill="#F0F0F0"/>
<path d="M420.689 246.905H418.204V249.393H420.689V246.905Z" fill="#F0F0F0"/>
<path d="M420.689 263.611H418.204V266.098H420.689V263.611Z" fill="#F0F0F0"/>
<path d="M416.747 180.103H414.262V182.591H416.747V180.103Z" fill="#F0F0F0"/>
<path d="M416.747 184.28H414.262V186.767H416.747V184.28Z" fill="#F0F0F0"/>
<path d="M416.747 188.456H414.262V190.944H416.747V188.456Z" fill="#F0F0F0"/>
<path d="M416.747 192.632H414.262V195.12H416.747V192.632Z" fill="#F0F0F0"/>
<path d="M416.747 196.809H414.262V199.296H416.747V196.809Z" fill="#F0F0F0"/>
<path d="M416.747 200.975H414.262V203.463H416.747V200.975Z" fill="#F0F0F0"/>
<path d="M416.747 205.151H414.262V207.639H416.747V205.151Z" fill="#F0F0F0"/>
<path d="M416.747 209.328H414.262V211.816H416.747V209.328Z" fill="#F0F0F0"/>
<path d="M416.747 213.504H414.262V215.992H416.747V213.504Z" fill="#F0F0F0"/>
<path d="M416.747 217.681H414.262V220.169H416.747V217.681Z" fill="#F0F0F0"/>
<path d="M416.747 230.21H414.262V232.698H416.747V230.21Z" fill="#F0F0F0"/>
<path d="M416.747 234.386H414.262V236.874H416.747V234.386Z" fill="#F0F0F0"/>
<path d="M416.747 238.562H414.262V241.05H416.747V238.562Z" fill="#F0F0F0"/>
<path d="M416.747 242.729H414.262V245.217H416.747V242.729Z" fill="#F0F0F0"/>
<path d="M416.747 246.905H414.262V249.393H416.747V246.905Z" fill="#F0F0F0"/>
<path d="M416.747 263.611H414.262V266.098H416.747V263.611Z" fill="#F0F0F0"/>
<path d="M412.795 180.103H410.309V182.591H412.795V180.103Z" fill="#F0F0F0"/>
<path d="M412.795 184.28H410.309V186.767H412.795V184.28Z" fill="#F0F0F0"/>
<path d="M412.795 188.456H410.309V190.944H412.795V188.456Z" fill="#F0F0F0"/>
<path d="M412.795 192.632H410.309V195.12H412.795V192.632Z" fill="#F0F0F0"/>
<path d="M412.795 196.809H410.309V199.296H412.795V196.809Z" fill="#F0F0F0"/>
<path d="M412.795 200.975H410.309V203.463H412.795V200.975Z" fill="#F0F0F0"/>
<path d="M412.795 205.151H410.309V207.639H412.795V205.151Z" fill="#F0F0F0"/>
<path d="M412.795 209.328H410.309V211.816H412.795V209.328Z" fill="#F0F0F0"/>
<path d="M412.795 213.504H410.309V215.992H412.795V213.504Z" fill="#F0F0F0"/>
<path d="M412.795 217.681H410.309V220.169H412.795V217.681Z" fill="#F0F0F0"/>
<path d="M412.795 221.857H410.309V224.345H412.795V221.857Z" fill="#F0F0F0"/>
<path d="M412.795 226.033H410.309V228.521H412.795V226.033Z" fill="#F0F0F0"/>
<path d="M412.795 230.21H410.309V232.698H412.795V230.21Z" fill="#F0F0F0"/>
<path d="M412.795 234.386H410.309V236.874H412.795V234.386Z" fill="#F0F0F0"/>
<path d="M412.795 238.562H410.309V241.05H412.795V238.562Z" fill="#F0F0F0"/>
<path d="M412.795 242.729H410.309V245.217H412.795V242.729Z" fill="#F0F0F0"/>
<path d="M412.795 246.905H410.309V249.393H412.795V246.905Z" fill="#F0F0F0"/>
<path d="M412.795 251.082H410.309V253.569H412.795V251.082Z" fill="#F0F0F0"/>
<path d="M408.842 180.103H406.357V182.591H408.842V180.103Z" fill="#F0F0F0"/>
<path d="M408.842 184.28H406.357V186.767H408.842V184.28Z" fill="#F0F0F0"/>
<path d="M408.842 188.456H406.357V190.944H408.842V188.456Z" fill="#F0F0F0"/>
<path d="M408.842 192.632H406.357V195.12H408.842V192.632Z" fill="#F0F0F0"/>
<path d="M408.842 196.809H406.357V199.296H408.842V196.809Z" fill="#F0F0F0"/>
<path d="M408.842 200.975H406.357V203.463H408.842V200.975Z" fill="#F0F0F0"/>
<path d="M408.842 205.151H406.357V207.639H408.842V205.151Z" fill="#F0F0F0"/>
<path d="M408.842 209.328H406.357V211.816H408.842V209.328Z" fill="#F0F0F0"/>
<path d="M408.842 213.504H406.357V215.992H408.842V213.504Z" fill="#F0F0F0"/>
<path d="M408.842 217.681H406.357V220.169H408.842V217.681Z" fill="#F0F0F0"/>
<path d="M408.842 230.21H406.357V232.698H408.842V230.21Z" fill="#F0F0F0"/>
<path d="M408.842 234.386H406.357V236.874H408.842V234.386Z" fill="#F0F0F0"/>
<path d="M408.842 238.562H406.357V241.05H408.842V238.562Z" fill="#F0F0F0"/>
<path d="M408.842 242.729H406.357V245.217H408.842V242.729Z" fill="#F0F0F0"/>
<path d="M404.89 180.103H402.405V182.591H404.89V180.103Z" fill="#F0F0F0"/>
<path d="M404.89 184.28H402.405V186.767H404.89V184.28Z" fill="#F0F0F0"/>
<path d="M404.89 188.456H402.405V190.944H404.89V188.456Z" fill="#F0F0F0"/>
<path d="M404.89 192.632H402.405V195.12H404.89V192.632Z" fill="#F0F0F0"/>
<path d="M404.89 196.809H402.405V199.296H404.89V196.809Z" fill="#F0F0F0"/>
<path d="M404.89 200.975H402.405V203.463H404.89V200.975Z" fill="#F0F0F0"/>
<path d="M404.89 205.151H402.405V207.639H404.89V205.151Z" fill="#F0F0F0"/>
<path d="M404.89 209.328H402.405V211.816H404.89V209.328Z" fill="#F0F0F0"/>
<path d="M404.89 213.504H402.405V215.992H404.89V213.504Z" fill="#F0F0F0"/>
<path d="M404.89 217.681H402.405V220.169H404.89V217.681Z" fill="#F0F0F0"/>
<path d="M404.89 230.21H402.405V232.698H404.89V230.21Z" fill="#F0F0F0"/>
<path d="M404.89 234.386H402.405V236.874H404.89V234.386Z" fill="#F0F0F0"/>
<path d="M404.89 238.562H402.405V241.05H404.89V238.562Z" fill="#F0F0F0"/>
<path d="M360.396 169.263H357.91V171.751H360.396V169.263Z" fill="#F0F0F0"/>
<path d="M360.396 173.439H357.91V175.927H360.396V173.439Z" fill="#F0F0F0"/>
<path d="M360.396 177.615H357.91V180.103H360.396V177.615Z" fill="#F0F0F0"/>
<path d="M360.396 181.792H357.91V184.28H360.396V181.792Z" fill="#F0F0F0"/>
<path d="M360.396 185.968H357.91V188.456H360.396V185.968Z" fill="#F0F0F0"/>
<path d="M360.396 190.135H357.91V192.622H360.396V190.135Z" fill="#F0F0F0"/>
<path d="M360.396 194.311H357.91V196.799H360.396V194.311Z" fill="#F0F0F0"/>
<path d="M360.396 198.487H357.91V200.975H360.396V198.487Z" fill="#F0F0F0"/>
<path d="M360.396 211.016H357.91V213.504H360.396V211.016Z" fill="#F0F0F0"/>
<path d="M360.396 215.193H357.91V217.68H360.396V215.193Z" fill="#F0F0F0"/>
<path d="M356.443 169.263H353.958V171.751H356.443V169.263Z" fill="#F0F0F0"/>
<path d="M356.443 173.439H353.958V175.927H356.443V173.439Z" fill="#F0F0F0"/>
<path d="M356.443 177.615H353.958V180.103H356.443V177.615Z" fill="#F0F0F0"/>
<path d="M356.443 181.792H353.958V184.28H356.443V181.792Z" fill="#F0F0F0"/>
<path d="M356.443 185.968H353.958V188.456H356.443V185.968Z" fill="#F0F0F0"/>
<path d="M356.443 190.135H353.958V192.622H356.443V190.135Z" fill="#F0F0F0"/>
<path d="M356.443 194.311H353.958V196.799H356.443V194.311Z" fill="#F0F0F0"/>
<path d="M356.443 198.487H353.958V200.975H356.443V198.487Z" fill="#F0F0F0"/>
<path d="M356.443 215.193H353.958V217.68H356.443V215.193Z" fill="#F0F0F0"/>
<path d="M352.491 169.263H350.006V171.751H352.491V169.263Z" fill="#F0F0F0"/>
<path d="M352.491 173.439H350.006V175.927H352.491V173.439Z" fill="#F0F0F0"/>
<path d="M352.491 177.615H350.006V180.103H352.491V177.615Z" fill="#F0F0F0"/>
<path d="M352.491 181.792H350.006V184.28H352.491V181.792Z" fill="#F0F0F0"/>
<path d="M352.491 185.968H350.006V188.456H352.491V185.968Z" fill="#F0F0F0"/>
<path d="M352.491 190.135H350.006V192.622H352.491V190.135Z" fill="#F0F0F0"/>
<path d="M352.491 194.311H350.006V196.799H352.491V194.311Z" fill="#F0F0F0"/>
<path d="M352.491 198.487H350.006V200.975H352.491V198.487Z" fill="#F0F0F0"/>
<path d="M348.548 169.263H346.063V171.751H348.548V169.263Z" fill="#F0F0F0"/>
<path d="M348.548 173.439H346.063V175.927H348.548V173.439Z" fill="#F0F0F0"/>
<path d="M348.548 177.615H346.063V180.103H348.548V177.615Z" fill="#F0F0F0"/>
<path d="M348.548 181.792H346.063V184.28H348.548V181.792Z" fill="#F0F0F0"/>
<path d="M348.548 185.968H346.063V188.456H348.548V185.968Z" fill="#F0F0F0"/>
<path d="M348.548 190.135H346.063V192.622H348.548V190.135Z" fill="#F0F0F0"/>
<path d="M348.548 198.487H346.063V200.975H348.548V198.487Z" fill="#F0F0F0"/>
<path d="M348.548 202.664H346.063V205.151H348.548V202.664Z" fill="#F0F0F0"/>
<path d="M348.548 215.193H346.063V217.68H348.548V215.193Z" fill="#F0F0F0"/>
<path d="M348.548 219.369H346.063V221.857H348.548V219.369Z" fill="#F0F0F0"/>
<path d="M348.548 223.545H346.063V226.033H348.548V223.545Z" fill="#F0F0F0"/>
<path d="M348.548 227.722H346.063V230.21H348.548V227.722Z" fill="#F0F0F0"/>
<path d="M348.548 231.888H346.063V234.376H348.548V231.888Z" fill="#F0F0F0"/>
<path d="M348.548 236.064H346.063V238.552H348.548V236.064Z" fill="#F0F0F0"/>
<path d="M348.548 240.241H346.063V242.729H348.548V240.241Z" fill="#F0F0F0"/>
<path d="M344.596 169.263H342.111V171.751H344.596V169.263Z" fill="#F0F0F0"/>
<path d="M344.596 173.439H342.111V175.927H344.596V173.439Z" fill="#F0F0F0"/>
<path d="M344.596 177.615H342.111V180.103H344.596V177.615Z" fill="#F0F0F0"/>
<path d="M344.596 181.792H342.111V184.28H344.596V181.792Z" fill="#F0F0F0"/>
<path d="M344.596 185.968H342.111V188.456H344.596V185.968Z" fill="#F0F0F0"/>
<path d="M344.596 190.135H342.111V192.622H344.596V190.135Z" fill="#F0F0F0"/>
<path d="M344.596 202.664H342.111V205.151H344.596V202.664Z" fill="#F0F0F0"/>
<path d="M344.596 206.84H342.111V209.328H344.596V206.84Z" fill="#F0F0F0"/>
<path d="M344.596 211.016H342.111V213.504H344.596V211.016Z" fill="#F0F0F0"/>
<path d="M344.596 215.193H342.111V217.68H344.596V215.193Z" fill="#F0F0F0"/>
<path d="M344.596 219.369H342.111V221.857H344.596V219.369Z" fill="#F0F0F0"/>
<path d="M344.596 223.545H342.111V226.033H344.596V223.545Z" fill="#F0F0F0"/>
<path d="M344.596 227.722H342.111V230.21H344.596V227.722Z" fill="#F0F0F0"/>
<path d="M344.596 231.888H342.111V234.376H344.596V231.888Z" fill="#F0F0F0"/>
<path d="M344.596 236.064H342.111V238.552H344.596V236.064Z" fill="#F0F0F0"/>
<path d="M344.596 240.241H342.111V242.729H344.596V240.241Z" fill="#F0F0F0"/>
<path d="M344.596 244.417H342.111V246.905H344.596V244.417Z" fill="#F0F0F0"/>
<path d="M344.596 252.77H342.111V255.258H344.596V252.77Z" fill="#F0F0F0"/>
<path d="M340.644 169.263H338.158V171.751H340.644V169.263Z" fill="#F0F0F0"/>
<path d="M340.644 173.439H338.158V175.927H340.644V173.439Z" fill="#F0F0F0"/>
<path d="M340.644 177.615H338.158V180.103H340.644V177.615Z" fill="#F0F0F0"/>
<path d="M340.644 181.792H338.158V184.28H340.644V181.792Z" fill="#F0F0F0"/>
<path d="M340.644 185.968H338.158V188.456H340.644V185.968Z" fill="#F0F0F0"/>
<path d="M340.644 190.135H338.158V192.622H340.644V190.135Z" fill="#F0F0F0"/>
<path d="M340.644 202.664H338.158V205.151H340.644V202.664Z" fill="#F0F0F0"/>
<path d="M340.644 206.84H338.158V209.328H340.644V206.84Z" fill="#F0F0F0"/>
<path d="M340.644 211.016H338.158V213.504H340.644V211.016Z" fill="#F0F0F0"/>
<path d="M340.644 215.193H338.158V217.68H340.644V215.193Z" fill="#F0F0F0"/>
<path d="M340.644 227.722H338.158V230.21H340.644V227.722Z" fill="#F0F0F0"/>
<path d="M340.644 231.888H338.158V234.376H340.644V231.888Z" fill="#F0F0F0"/>
<path d="M340.644 236.064H338.158V238.552H340.644V236.064Z" fill="#F0F0F0"/>
<path d="M340.644 240.241H338.158V242.729H340.644V240.241Z" fill="#F0F0F0"/>
<path d="M340.644 244.417H338.158V246.905H340.644V244.417Z" fill="#F0F0F0"/>
<path d="M340.644 252.77H338.158V255.258H340.644V252.77Z" fill="#F0F0F0"/>
<path d="M340.644 256.946H338.158V259.434H340.644V256.946Z" fill="#F0F0F0"/>
<path d="M304.783 208.089H302.298V210.577H304.783V208.089Z" fill="#F0F0F0"/>
<path d="M304.783 212.265H302.298V214.753H304.783V212.265Z" fill="#F0F0F0"/>
<path d="M304.783 216.432H302.298V218.919H304.783V216.432Z" fill="#F0F0F0"/>
<path d="M304.783 220.608H302.298V223.096H304.783V220.608Z" fill="#F0F0F0"/>
<path d="M304.783 224.784H302.298V227.272H304.783V224.784Z" fill="#F0F0F0"/>
<path d="M304.783 228.961H302.298V231.449H304.783V228.961Z" fill="#F0F0F0"/>
<path d="M304.783 233.137H302.298V235.625H304.783V233.137Z" fill="#F0F0F0"/>
<path d="M304.783 245.666H302.298V248.154H304.783V245.666Z" fill="#F0F0F0"/>
<path d="M304.783 249.843H302.298V252.33H304.783V249.843Z" fill="#F0F0F0"/>
<path d="M304.783 254.019H302.298V256.507H304.783V254.019Z" fill="#F0F0F0"/>
<path d="M300.83 208.089H298.345V210.577H300.83V208.089Z" fill="#F0F0F0"/>
<path d="M300.83 212.265H298.345V214.753H300.83V212.265Z" fill="#F0F0F0"/>
<path d="M300.83 216.432H298.345V218.919H300.83V216.432Z" fill="#F0F0F0"/>
<path d="M300.83 220.608H298.345V223.096H300.83V220.608Z" fill="#F0F0F0"/>
<path d="M300.83 224.784H298.345V227.272H300.83V224.784Z" fill="#F0F0F0"/>
<path d="M300.83 228.961H298.345V231.449H300.83V228.961Z" fill="#F0F0F0"/>
<path d="M300.83 233.137H298.345V235.625H300.83V233.137Z" fill="#F0F0F0"/>
<path d="M296.888 208.089H294.403V210.577H296.888V208.089Z" fill="#F0F0F0"/>
<path d="M296.888 212.265H294.403V214.753H296.888V212.265Z" fill="#F0F0F0"/>
<path d="M296.888 216.432H294.403V218.919H296.888V216.432Z" fill="#F0F0F0"/>
<path d="M296.888 220.608H294.403V223.096H296.888V220.608Z" fill="#F0F0F0"/>
<path d="M296.888 224.784H294.403V227.272H296.888V224.784Z" fill="#F0F0F0"/>
<path d="M296.888 228.961H294.403V231.449H296.888V228.961Z" fill="#F0F0F0"/>
<path d="M296.888 233.137H294.403V235.625H296.888V233.137Z" fill="#F0F0F0"/>
<path d="M292.936 208.089H290.45V210.577H292.936V208.089Z" fill="#F0F0F0"/>
<path d="M292.936 212.265H290.45V214.753H292.936V212.265Z" fill="#F0F0F0"/>
<path d="M292.936 216.432H290.45V218.919H292.936V216.432Z" fill="#F0F0F0"/>
<path d="M292.936 220.608H290.45V223.096H292.936V220.608Z" fill="#F0F0F0"/>
<path d="M292.936 224.784H290.45V227.272H292.936V224.784Z" fill="#F0F0F0"/>
<path d="M292.936 228.961H290.45V231.449H292.936V228.961Z" fill="#F0F0F0"/>
<path d="M292.936 233.137H290.45V235.625H292.936V233.137Z" fill="#F0F0F0"/>
<path d="M292.936 237.313H290.45V239.801H292.936V237.313Z" fill="#F0F0F0"/>
<path d="M292.936 241.49H290.45V243.978H292.936V241.49Z" fill="#F0F0F0"/>
<path d="M292.936 245.666H290.45V248.154H292.936V245.666Z" fill="#F0F0F0"/>
<path d="M292.936 249.843H290.45V252.33H292.936V249.843Z" fill="#F0F0F0"/>
<path d="M288.983 208.089H286.498V210.577H288.983V208.089Z" fill="#F0F0F0"/>
<path d="M288.983 212.265H286.498V214.753H288.983V212.265Z" fill="#F0F0F0"/>
<path d="M288.983 216.432H286.498V218.919H288.983V216.432Z" fill="#F0F0F0"/>
<path d="M288.983 220.608H286.498V223.096H288.983V220.608Z" fill="#F0F0F0"/>
<path d="M288.983 224.784H286.498V227.272H288.983V224.784Z" fill="#F0F0F0"/>
<path d="M288.983 228.961H286.498V231.449H288.983V228.961Z" fill="#F0F0F0"/>
<path d="M288.983 233.137H286.498V235.625H288.983V233.137Z" fill="#F0F0F0"/>
<path d="M288.983 237.313H286.498V239.801H288.983V237.313Z" fill="#F0F0F0"/>
<path d="M288.983 241.49H286.498V243.978H288.983V241.49Z" fill="#F0F0F0"/>
<path d="M288.983 245.666H286.498V248.154H288.983V245.666Z" fill="#F0F0F0"/>
<path d="M288.983 249.843H286.498V252.33H288.983V249.843Z" fill="#F0F0F0"/>
<path d="M288.983 254.019H286.498V256.507H288.983V254.019Z" fill="#F0F0F0"/>
<path d="M288.983 266.538H286.498V269.026H288.983V266.538Z" fill="#F0F0F0"/>
<path d="M288.983 270.714H286.498V273.202H288.983V270.714Z" fill="#F0F0F0"/>
<path d="M285.031 208.089H282.546V210.577H285.031V208.089Z" fill="#F0F0F0"/>
<path d="M285.031 212.265H282.546V214.753H285.031V212.265Z" fill="#F0F0F0"/>
<path d="M285.031 216.432H282.546V218.919H285.031V216.432Z" fill="#F0F0F0"/>
<path d="M285.031 228.961H282.546V231.449H285.031V228.961Z" fill="#F0F0F0"/>
<path d="M285.031 233.137H282.546V235.625H285.031V233.137Z" fill="#F0F0F0"/>
<path d="M285.031 237.313H282.546V239.801H285.031V237.313Z" fill="#F0F0F0"/>
<path d="M285.031 241.49H282.546V243.978H285.031V241.49Z" fill="#F0F0F0"/>
<path d="M285.031 245.666H282.546V248.154H285.031V245.666Z" fill="#F0F0F0"/>
<path d="M285.031 249.843H282.546V252.33H285.031V249.843Z" fill="#F0F0F0"/>
<path d="M285.031 254.019H282.546V256.507H285.031V254.019Z" fill="#F0F0F0"/>
<path d="M285.031 266.538H282.546V269.026H285.031V266.538Z" fill="#F0F0F0"/>
<path d="M285.031 270.714H282.546V273.202H285.031V270.714Z" fill="#F0F0F0"/>
<path d="M285.031 274.891H282.546V277.378H285.031V274.891Z" fill="#F0F0F0"/>
<path d="M243.611 183.031H241.125V185.519H243.611V183.031Z" fill="#F0F0F0"/>
<path d="M243.611 187.207H241.125V189.695H243.611V187.207Z" fill="#F0F0F0"/>
<path d="M243.611 191.384H241.125V193.871H243.611V191.384Z" fill="#F0F0F0"/>
<path d="M243.611 195.56H241.125V198.048H243.611V195.56Z" fill="#F0F0F0"/>
<path d="M243.611 199.736H241.125V202.224H243.611V199.736Z" fill="#F0F0F0"/>
<path d="M243.611 203.913H241.125V206.4H243.611V203.913Z" fill="#F0F0F0"/>
<path d="M243.611 208.089H241.125V210.577H243.611V208.089Z" fill="#F0F0F0"/>
<path d="M243.611 212.265H241.125V214.753H243.611V212.265Z" fill="#F0F0F0"/>
<path d="M243.611 216.432H241.125V218.919H243.611V216.432Z" fill="#F0F0F0"/>
<path d="M243.611 220.608H241.125V223.096H243.611V220.608Z" fill="#F0F0F0"/>
<path d="M243.611 224.784H241.125V227.272H243.611V224.784Z" fill="#F0F0F0"/>
<path d="M243.611 228.961H241.125V231.449H243.611V228.961Z" fill="#F0F0F0"/>
<path d="M243.611 233.137H241.125V235.625H243.611V233.137Z" fill="#F0F0F0"/>
<path d="M243.611 237.313H241.125V239.801H243.611V237.313Z" fill="#F0F0F0"/>
<path d="M243.611 241.49H241.125V243.978H243.611V241.49Z" fill="#F0F0F0"/>
<path d="M243.611 245.666H241.125V248.154H243.611V245.666Z" fill="#F0F0F0"/>
<path d="M243.611 249.843H241.125V252.33H243.611V249.843Z" fill="#F0F0F0"/>
<path d="M243.611 254.019H241.125V256.507H243.611V254.019Z" fill="#F0F0F0"/>
<path d="M243.611 258.185H241.125V260.673H243.611V258.185Z" fill="#F0F0F0"/>
<path d="M243.611 262.362H241.125V264.849H243.611V262.362Z" fill="#F0F0F0"/>
<path d="M243.611 266.538H241.125V269.026H243.611V266.538Z" fill="#F0F0F0"/>
<path d="M243.611 270.714H241.125V273.202H243.611V270.714Z" fill="#F0F0F0"/>
<path d="M243.611 274.891H241.125V277.378H243.611V274.891Z" fill="#F0F0F0"/>
<path d="M239.658 183.031H237.173V185.519H239.658V183.031Z" fill="#F0F0F0"/>
<path d="M239.658 187.207H237.173V189.695H239.658V187.207Z" fill="#F0F0F0"/>
<path d="M239.658 191.384H237.173V193.871H239.658V191.384Z" fill="#F0F0F0"/>
<path d="M239.658 195.56H237.173V198.048H239.658V195.56Z" fill="#F0F0F0"/>
<path d="M239.658 199.736H237.173V202.224H239.658V199.736Z" fill="#F0F0F0"/>
<path d="M239.658 203.913H237.173V206.4H239.658V203.913Z" fill="#F0F0F0"/>
<path d="M239.658 208.089H237.173V210.577H239.658V208.089Z" fill="#F0F0F0"/>
<path d="M239.658 212.265H237.173V214.753H239.658V212.265Z" fill="#F0F0F0"/>
<path d="M239.658 216.432H237.173V218.919H239.658V216.432Z" fill="#F0F0F0"/>
<path d="M239.658 220.608H237.173V223.096H239.658V220.608Z" fill="#F0F0F0"/>
<path d="M239.658 224.784H237.173V227.272H239.658V224.784Z" fill="#F0F0F0"/>
<path d="M239.658 228.961H237.173V231.449H239.658V228.961Z" fill="#F0F0F0"/>
<path d="M239.658 233.137H237.173V235.625H239.658V233.137Z" fill="#F0F0F0"/>
<path d="M239.658 237.313H237.173V239.801H239.658V237.313Z" fill="#F0F0F0"/>
<path d="M239.658 241.49H237.173V243.978H239.658V241.49Z" fill="#F0F0F0"/>
<path d="M239.658 245.666H237.173V248.154H239.658V245.666Z" fill="#F0F0F0"/>
<path d="M239.658 249.843H237.173V252.33H239.658V249.843Z" fill="#F0F0F0"/>
<path d="M239.658 254.019H237.173V256.507H239.658V254.019Z" fill="#F0F0F0"/>
<path d="M239.658 258.185H237.173V260.673H239.658V258.185Z" fill="#F0F0F0"/>
<path d="M235.706 183.031H233.221V185.519H235.706V183.031Z" fill="#F0F0F0"/>
<path d="M235.706 187.207H233.221V189.695H235.706V187.207Z" fill="#F0F0F0"/>
<path d="M235.706 191.384H233.221V193.871H235.706V191.384Z" fill="#F0F0F0"/>
<path d="M235.706 195.56H233.221V198.048H235.706V195.56Z" fill="#F0F0F0"/>
<path d="M235.706 199.736H233.221V202.224H235.706V199.736Z" fill="#F0F0F0"/>
<path d="M235.706 203.913H233.221V206.4H235.706V203.913Z" fill="#F0F0F0"/>
<path d="M235.706 208.089H233.221V210.577H235.706V208.089Z" fill="#F0F0F0"/>
<path d="M235.706 212.265H233.221V214.753H235.706V212.265Z" fill="#F0F0F0"/>
<path d="M235.706 216.432H233.221V218.919H235.706V216.432Z" fill="#F0F0F0"/>
<path d="M235.706 220.608H233.221V223.096H235.706V220.608Z" fill="#F0F0F0"/>
<path d="M235.706 224.784H233.221V227.272H235.706V224.784Z" fill="#F0F0F0"/>
<path d="M235.706 228.961H233.221V231.449H235.706V228.961Z" fill="#F0F0F0"/>
<path d="M235.706 233.137H233.221V235.625H235.706V233.137Z" fill="#F0F0F0"/>
<path d="M235.706 237.313H233.221V239.801H235.706V237.313Z" fill="#F0F0F0"/>
<path d="M235.706 241.49H233.221V243.978H235.706V241.49Z" fill="#F0F0F0"/>
<path d="M235.706 245.666H233.221V248.154H235.706V245.666Z" fill="#F0F0F0"/>
<path d="M235.706 249.843H233.221V252.33H235.706V249.843Z" fill="#F0F0F0"/>
<path d="M235.706 254.019H233.221V256.507H235.706V254.019Z" fill="#F0F0F0"/>
<path d="M235.706 258.185H233.221V260.673H235.706V258.185Z" fill="#F0F0F0"/>
<path d="M231.753 183.031H229.268V185.519H231.753V183.031Z" fill="#F0F0F0"/>
<path d="M231.753 187.207H229.268V189.695H231.753V187.207Z" fill="#F0F0F0"/>
<path d="M231.753 191.384H229.268V193.871H231.753V191.384Z" fill="#F0F0F0"/>
<path d="M231.753 195.56H229.268V198.048H231.753V195.56Z" fill="#F0F0F0"/>
<path d="M231.753 199.736H229.268V202.224H231.753V199.736Z" fill="#F0F0F0"/>
<path d="M231.753 203.913H229.268V206.4H231.753V203.913Z" fill="#F0F0F0"/>
<path d="M231.753 208.089H229.268V210.577H231.753V208.089Z" fill="#F0F0F0"/>
<path d="M231.753 212.265H229.268V214.753H231.753V212.265Z" fill="#F0F0F0"/>
<path d="M231.753 216.432H229.268V218.919H231.753V216.432Z" fill="#F0F0F0"/>
<path d="M231.753 220.608H229.268V223.096H231.753V220.608Z" fill="#F0F0F0"/>
<path d="M231.753 224.784H229.268V227.272H231.753V224.784Z" fill="#F0F0F0"/>
<path d="M231.753 228.961H229.268V231.449H231.753V228.961Z" fill="#F0F0F0"/>
<path d="M231.753 233.137H229.268V235.625H231.753V233.137Z" fill="#F0F0F0"/>
<path d="M231.753 237.313H229.268V239.801H231.753V237.313Z" fill="#F0F0F0"/>
<path d="M231.753 241.49H229.268V243.978H231.753V241.49Z" fill="#F0F0F0"/>
<path d="M227.811 183.031H225.326V185.519H227.811V183.031Z" fill="#F0F0F0"/>
<path d="M227.811 187.207H225.326V189.695H227.811V187.207Z" fill="#F0F0F0"/>
<path d="M227.811 191.384H225.326V193.871H227.811V191.384Z" fill="#F0F0F0"/>
<path d="M227.811 195.56H225.326V198.048H227.811V195.56Z" fill="#F0F0F0"/>
<path d="M227.811 199.736H225.326V202.224H227.811V199.736Z" fill="#F0F0F0"/>
<path d="M227.811 203.913H225.326V206.4H227.811V203.913Z" fill="#F0F0F0"/>
<path d="M227.811 208.089H225.326V210.577H227.811V208.089Z" fill="#F0F0F0"/>
<path d="M227.811 212.265H225.326V214.753H227.811V212.265Z" fill="#F0F0F0"/>
<path d="M227.811 216.432H225.326V218.919H227.811V216.432Z" fill="#F0F0F0"/>
<path d="M227.811 220.608H225.326V223.096H227.811V220.608Z" fill="#F0F0F0"/>
<path d="M227.811 224.784H225.326V227.272H227.811V224.784Z" fill="#F0F0F0"/>
<path d="M227.811 228.961H225.326V231.449H227.811V228.961Z" fill="#F0F0F0"/>
<path d="M227.811 233.137H225.326V235.625H227.811V233.137Z" fill="#F0F0F0"/>
<path d="M223.859 183.031H221.373V185.519H223.859V183.031Z" fill="#F0F0F0"/>
<path d="M223.859 187.207H221.373V189.695H223.859V187.207Z" fill="#F0F0F0"/>
<path d="M223.859 191.384H221.373V193.871H223.859V191.384Z" fill="#F0F0F0"/>
<path d="M223.859 195.56H221.373V198.048H223.859V195.56Z" fill="#F0F0F0"/>
<path d="M223.859 199.736H221.373V202.224H223.859V199.736Z" fill="#F0F0F0"/>
<path d="M223.859 203.913H221.373V206.4H223.859V203.913Z" fill="#F0F0F0"/>
<path d="M223.859 208.089H221.373V210.577H223.859V208.089Z" fill="#F0F0F0"/>
<path d="M223.859 212.265H221.373V214.753H223.859V212.265Z" fill="#F0F0F0"/>
<path d="M223.859 216.432H221.373V218.919H223.859V216.432Z" fill="#F0F0F0"/>
<path d="M223.859 220.608H221.373V223.096H223.859V220.608Z" fill="#F0F0F0"/>
<path d="M223.859 224.784H221.373V227.272H223.859V224.784Z" fill="#F0F0F0"/>
<path d="M223.859 228.961H221.373V231.449H223.859V228.961Z" fill="#F0F0F0"/>
<path d="M454.504 181.792H452.019V184.28H454.504V181.792Z" fill="#F0F0F0"/>
<path d="M454.504 185.968H452.019V188.456H454.504V185.968Z" fill="#F0F0F0"/>
<path d="M454.504 190.135H452.019V192.622H454.504V190.135Z" fill="#F0F0F0"/>
<path d="M454.504 194.311H452.019V196.799H454.504V194.311Z" fill="#F0F0F0"/>
<path d="M454.504 198.487H452.019V200.975H454.504V198.487Z" fill="#F0F0F0"/>
<path d="M454.504 202.664H452.019V205.151H454.504V202.664Z" fill="#F0F0F0"/>
<path d="M454.504 206.84H452.019V209.328H454.504V206.84Z" fill="#F0F0F0"/>
<path d="M454.504 211.016H452.019V213.504H454.504V211.016Z" fill="#F0F0F0"/>
<path d="M454.504 215.193H452.019V217.68H454.504V215.193Z" fill="#F0F0F0"/>
<path d="M454.504 219.369H452.019V221.857H454.504V219.369Z" fill="#F0F0F0"/>
<path d="M454.504 223.545H452.019V226.033H454.504V223.545Z" fill="#F0F0F0"/>
<path d="M454.504 227.722H452.019V230.21H454.504V227.722Z" fill="#F0F0F0"/>
<path d="M454.504 231.888H452.019V234.376H454.504V231.888Z" fill="#F0F0F0"/>
<path d="M454.504 236.064H452.019V238.552H454.504V236.064Z" fill="#F0F0F0"/>
<path d="M454.504 240.241H452.019V242.729H454.504V240.241Z" fill="#F0F0F0"/>
<path d="M454.504 244.417H452.019V246.905H454.504V244.417Z" fill="#F0F0F0"/>
<path d="M454.504 248.594H452.019V251.082H454.504V248.594Z" fill="#F0F0F0"/>
<path d="M454.504 256.946H452.019V259.434H454.504V256.946Z" fill="#F0F0F0"/>
<path d="M454.504 261.123H452.019V263.611H454.504V261.123Z" fill="#F0F0F0"/>
<path d="M454.504 265.299H452.019V267.787H454.504V265.299Z" fill="#F0F0F0"/>
<path d="M454.504 269.466H452.019V271.953H454.504V269.466Z" fill="#F0F0F0"/>
<path d="M454.504 273.642H452.019V276.13H454.504V273.642Z" fill="#F0F0F0"/>
<path d="M450.552 181.792H448.067V184.28H450.552V181.792Z" fill="#F0F0F0"/>
<path d="M450.552 185.968H448.067V188.456H450.552V185.968Z" fill="#F0F0F0"/>
<path d="M450.552 190.135H448.067V192.622H450.552V190.135Z" fill="#F0F0F0"/>
<path d="M450.552 194.311H448.067V196.799H450.552V194.311Z" fill="#F0F0F0"/>
<path d="M450.552 198.487H448.067V200.975H450.552V198.487Z" fill="#F0F0F0"/>
<path d="M450.552 202.664H448.067V205.151H450.552V202.664Z" fill="#F0F0F0"/>
<path d="M450.552 206.84H448.067V209.328H450.552V206.84Z" fill="#F0F0F0"/>
<path d="M450.552 211.016H448.067V213.504H450.552V211.016Z" fill="#F0F0F0"/>
<path d="M450.552 215.193H448.067V217.68H450.552V215.193Z" fill="#F0F0F0"/>
<path d="M450.552 219.369H448.067V221.857H450.552V219.369Z" fill="#F0F0F0"/>
<path d="M450.552 223.545H448.067V226.033H450.552V223.545Z" fill="#F0F0F0"/>
<path d="M450.552 227.722H448.067V230.21H450.552V227.722Z" fill="#F0F0F0"/>
<path d="M450.552 231.888H448.067V234.376H450.552V231.888Z" fill="#F0F0F0"/>
<path d="M450.552 236.064H448.067V238.552H450.552V236.064Z" fill="#F0F0F0"/>
<path d="M450.552 240.241H448.067V242.729H450.552V240.241Z" fill="#F0F0F0"/>
<path d="M450.552 244.417H448.067V246.905H450.552V244.417Z" fill="#F0F0F0"/>
<path d="M450.552 269.466H448.067V271.953H450.552V269.466Z" fill="#F0F0F0"/>
<path d="M450.552 273.642H448.067V276.13H450.552V273.642Z" fill="#F0F0F0"/>
<path d="M446.599 181.792H444.114V184.28H446.599V181.792Z" fill="#F0F0F0"/>
<path d="M446.599 185.968H444.114V188.456H446.599V185.968Z" fill="#F0F0F0"/>
<path d="M446.599 190.135H444.114V192.622H446.599V190.135Z" fill="#F0F0F0"/>
<path d="M446.599 194.311H444.114V196.799H446.599V194.311Z" fill="#F0F0F0"/>
<path d="M446.599 198.487H444.114V200.975H446.599V198.487Z" fill="#F0F0F0"/>
<path d="M446.599 202.664H444.114V205.151H446.599V202.664Z" fill="#F0F0F0"/>
<path d="M446.599 206.84H444.114V209.328H446.599V206.84Z" fill="#F0F0F0"/>
<path d="M446.599 211.016H444.114V213.504H446.599V211.016Z" fill="#F0F0F0"/>
<path d="M446.599 215.193H444.114V217.68H446.599V215.193Z" fill="#F0F0F0"/>
<path d="M446.599 219.369H444.114V221.857H446.599V219.369Z" fill="#F0F0F0"/>
<path d="M446.599 223.545H444.114V226.033H446.599V223.545Z" fill="#F0F0F0"/>
<path d="M446.599 227.722H444.114V230.21H446.599V227.722Z" fill="#F0F0F0"/>
<path d="M446.599 231.888H444.114V234.376H446.599V231.888Z" fill="#F0F0F0"/>
<path d="M446.599 236.064H444.114V238.552H446.599V236.064Z" fill="#F0F0F0"/>
<path d="M446.599 240.241H444.114V242.729H446.599V240.241Z" fill="#F0F0F0"/>
<path d="M446.599 244.417H444.114V246.905H446.599V244.417Z" fill="#F0F0F0"/>
<path d="M446.599 252.77H444.114V255.258H446.599V252.77Z" fill="#F0F0F0"/>
<path d="M446.599 256.946H444.114V259.434H446.599V256.946Z" fill="#F0F0F0"/>
<path d="M446.599 261.123H444.114V263.611H446.599V261.123Z" fill="#F0F0F0"/>
<path d="M446.599 265.299H444.114V267.787H446.599V265.299Z" fill="#F0F0F0"/>
<path d="M446.599 273.642H444.114V276.13H446.599V273.642Z" fill="#F0F0F0"/>
<path d="M377.672 211.016H375.187V213.504H377.672V211.016Z" fill="#F0F0F0"/>
<path d="M377.672 215.193H375.187V217.68H377.672V215.193Z" fill="#F0F0F0"/>
<path d="M377.672 219.369H375.187V221.857H377.672V219.369Z" fill="#F0F0F0"/>
<path d="M377.672 223.545H375.187V226.033H377.672V223.545Z" fill="#F0F0F0"/>
<path d="M377.672 227.722H375.187V230.21H377.672V227.722Z" fill="#F0F0F0"/>
<path d="M377.672 231.888H375.187V234.376H377.672V231.888Z" fill="#F0F0F0"/>
<path d="M377.672 236.064H375.187V238.552H377.672V236.064Z" fill="#F0F0F0"/>
<path d="M377.672 240.241H375.187V242.729H377.672V240.241Z" fill="#F0F0F0"/>
<path d="M377.672 244.417H375.187V246.905H377.672V244.417Z" fill="#F0F0F0"/>
<path d="M377.672 248.594H375.187V251.082H377.672V248.594Z" fill="#F0F0F0"/>
<path d="M377.672 252.77H375.187V255.258H377.672V252.77Z" fill="#F0F0F0"/>
<path d="M377.672 256.946H375.187V259.434H377.672V256.946Z" fill="#F0F0F0"/>
<path d="M377.672 261.123H375.187V263.611H377.672V261.123Z" fill="#F0F0F0"/>
<path d="M377.672 269.466H375.187V271.953H377.672V269.466Z" fill="#F0F0F0"/>
<path d="M377.672 273.642H375.187V276.13H377.672V273.642Z" fill="#F0F0F0"/>
<path d="M377.672 277.818H375.187V280.306H377.672V277.818Z" fill="#F0F0F0"/>
<path d="M377.672 281.995H375.187V284.482H377.672V281.995Z" fill="#F0F0F0"/>
<path d="M377.672 290.347H375.187V292.835H377.672V290.347Z" fill="#F0F0F0"/>
<path d="M377.672 294.524H375.187V297.012H377.672V294.524Z" fill="#F0F0F0"/>
<path d="M377.672 298.7H375.187V301.188H377.672V298.7Z" fill="#F0F0F0"/>
<path d="M373.72 211.016H371.235V213.504H373.72V211.016Z" fill="#F0F0F0"/>
<path d="M373.72 215.193H371.235V217.68H373.72V215.193Z" fill="#F0F0F0"/>
<path d="M373.72 219.369H371.235V221.857H373.72V219.369Z" fill="#F0F0F0"/>
<path d="M373.72 223.545H371.235V226.033H373.72V223.545Z" fill="#F0F0F0"/>
<path d="M373.72 227.722H371.235V230.21H373.72V227.722Z" fill="#F0F0F0"/>
<path d="M373.72 231.888H371.235V234.376H373.72V231.888Z" fill="#F0F0F0"/>
<path d="M373.72 236.064H371.235V238.552H373.72V236.064Z" fill="#F0F0F0"/>
<path d="M373.72 240.241H371.235V242.729H373.72V240.241Z" fill="#F0F0F0"/>
<path d="M373.72 244.417H371.235V246.905H373.72V244.417Z" fill="#F0F0F0"/>
<path d="M373.72 248.594H371.235V251.082H373.72V248.594Z" fill="#F0F0F0"/>
<path d="M373.72 252.77H371.235V255.258H373.72V252.77Z" fill="#F0F0F0"/>
<path d="M373.72 256.946H371.235V259.434H373.72V256.946Z" fill="#F0F0F0"/>
<path d="M373.72 261.123H371.235V263.611H373.72V261.123Z" fill="#F0F0F0"/>
<path d="M373.72 273.642H371.235V276.13H373.72V273.642Z" fill="#F0F0F0"/>
<path d="M373.72 277.818H371.235V280.306H373.72V277.818Z" fill="#F0F0F0"/>
<path d="M373.72 286.171H371.235V288.659H373.72V286.171Z" fill="#F0F0F0"/>
<path d="M373.72 290.347H371.235V292.835H373.72V290.347Z" fill="#F0F0F0"/>
<path d="M373.72 294.524H371.235V297.012H373.72V294.524Z" fill="#F0F0F0"/>
<path d="M373.72 298.7H371.235V301.188H373.72V298.7Z" fill="#F0F0F0"/>
<path d="M369.768 211.016H367.282V213.504H369.768V211.016Z" fill="#F0F0F0"/>
<path d="M369.768 215.193H367.282V217.68H369.768V215.193Z" fill="#F0F0F0"/>
<path d="M369.768 219.369H367.282V221.857H369.768V219.369Z" fill="#F0F0F0"/>
<path d="M369.768 223.545H367.282V226.033H369.768V223.545Z" fill="#F0F0F0"/>
<path d="M369.768 227.722H367.282V230.21H369.768V227.722Z" fill="#F0F0F0"/>
<path d="M369.768 231.888H367.282V234.376H369.768V231.888Z" fill="#F0F0F0"/>
<path d="M369.768 236.064H367.282V238.552H369.768V236.064Z" fill="#F0F0F0"/>
<path d="M369.768 240.241H367.282V242.729H369.768V240.241Z" fill="#F0F0F0"/>
<path d="M369.768 244.417H367.282V246.905H369.768V244.417Z" fill="#F0F0F0"/>
<path d="M369.768 248.594H367.282V251.082H369.768V248.594Z" fill="#F0F0F0"/>
<path d="M369.768 252.77H367.282V255.258H369.768V252.77Z" fill="#F0F0F0"/>
<path d="M369.768 256.946H367.282V259.434H369.768V256.946Z" fill="#F0F0F0"/>
<path d="M369.768 261.123H367.282V263.611H369.768V261.123Z" fill="#F0F0F0"/>
<path d="M369.768 265.299H367.282V267.787H369.768V265.299Z" fill="#F0F0F0"/>
<path d="M369.768 273.642H367.282V276.13H369.768V273.642Z" fill="#F0F0F0"/>
<path d="M369.768 281.995H367.282V284.482H369.768V281.995Z" fill="#F0F0F0"/>
<path d="M369.768 286.171H367.282V288.659H369.768V286.171Z" fill="#F0F0F0"/>
<path d="M369.768 290.347H367.282V292.835H369.768V290.347Z" fill="#F0F0F0"/>
<path d="M369.768 294.524H367.282V297.012H369.768V294.524Z" fill="#F0F0F0"/>
<path d="M369.768 298.7H367.282V301.188H369.768V298.7Z" fill="#F0F0F0"/>
<path d="M393.761 234.825H391.276V237.313H393.761V234.825Z" fill="#F0F0F0"/>
<path d="M393.761 239.002H391.276V241.49H393.761V239.002Z" fill="#F0F0F0"/>
<path d="M393.761 243.168H391.276V245.656H393.761V243.168Z" fill="#F0F0F0"/>
<path d="M393.761 247.345H391.276V249.833H393.761V247.345Z" fill="#F0F0F0"/>
<path d="M393.761 251.521H391.276V254.009H393.761V251.521Z" fill="#F0F0F0"/>
<path d="M393.761 255.698H391.276V258.185H393.761V255.698Z" fill="#F0F0F0"/>
<path d="M393.761 268.227H391.276V270.714H393.761V268.227Z" fill="#F0F0F0"/>
<path d="M393.761 272.403H391.276V274.891H393.761V272.403Z" fill="#F0F0F0"/>
<path d="M393.761 276.579H391.276V279.067H393.761V276.579Z" fill="#F0F0F0"/>
<path d="M393.761 280.756H391.276V283.243H393.761V280.756Z" fill="#F0F0F0"/>
<path d="M393.761 284.922H391.276V287.41H393.761V284.922Z" fill="#F0F0F0"/>
<path d="M393.761 289.098H391.276V291.586H393.761V289.098Z" fill="#F0F0F0"/>
<path d="M393.761 293.275H391.276V295.763H393.761V293.275Z" fill="#F0F0F0"/>
<path d="M389.819 234.825H387.334V237.313H389.819V234.825Z" fill="#F0F0F0"/>
<path d="M389.819 239.002H387.334V241.49H389.819V239.002Z" fill="#F0F0F0"/>
<path d="M389.819 243.168H387.334V245.656H389.819V243.168Z" fill="#F0F0F0"/>
<path d="M389.819 247.345H387.334V249.833H389.819V247.345Z" fill="#F0F0F0"/>
<path d="M389.819 251.521H387.334V254.009H389.819V251.521Z" fill="#F0F0F0"/>
<path d="M389.819 255.698H387.334V258.185H389.819V255.698Z" fill="#F0F0F0"/>
<path d="M389.819 268.227H387.334V270.714H389.819V268.227Z" fill="#F0F0F0"/>
<path d="M389.819 272.403H387.334V274.891H389.819V272.403Z" fill="#F0F0F0"/>
<path d="M389.819 276.579H387.334V279.067H389.819V276.579Z" fill="#F0F0F0"/>
<path d="M389.819 280.756H387.334V283.243H389.819V280.756Z" fill="#F0F0F0"/>
<path d="M389.819 284.922H387.334V287.41H389.819V284.922Z" fill="#F0F0F0"/>
<path d="M389.819 289.098H387.334V291.586H389.819V289.098Z" fill="#F0F0F0"/>
<path d="M389.819 297.451H387.334V299.939H389.819V297.451Z" fill="#F0F0F0"/>
<path d="M258.542 216.432H256.057V218.919H258.542V216.432Z" fill="#F0F0F0"/>
<path d="M258.542 220.608H256.057V223.096H258.542V220.608Z" fill="#F0F0F0"/>
<path d="M258.542 224.784H256.057V227.272H258.542V224.784Z" fill="#F0F0F0"/>
<path d="M258.542 228.961H256.057V231.449H258.542V228.961Z" fill="#F0F0F0"/>
<path d="M258.542 233.137H256.057V235.625H258.542V233.137Z" fill="#F0F0F0"/>
<path d="M258.542 237.313H256.057V239.801H258.542V237.313Z" fill="#F0F0F0"/>
<path d="M258.542 241.49H256.057V243.978H258.542V241.49Z" fill="#F0F0F0"/>
<path d="M258.542 245.666H256.057V248.154H258.542V245.666Z" fill="#F0F0F0"/>
<path d="M258.542 249.843H256.057V252.33H258.542V249.843Z" fill="#F0F0F0"/>
<path d="M258.542 254.019H256.057V256.507H258.542V254.019Z" fill="#F0F0F0"/>
<path d="M258.542 258.185H256.057V260.673H258.542V258.185Z" fill="#F0F0F0"/>
<path d="M258.542 266.538H256.057V269.026H258.542V266.538Z" fill="#F0F0F0"/>
<path d="M258.542 270.714H256.057V273.202H258.542V270.714Z" fill="#F0F0F0"/>
<path d="M258.542 274.891H256.057V277.378H258.542V274.891Z" fill="#F0F0F0"/>
<path d="M258.542 279.067H256.057V281.555H258.542V279.067Z" fill="#F0F0F0"/>
<path d="M258.542 283.243H256.057V285.731H258.542V283.243Z" fill="#F0F0F0"/>
<path d="M258.542 287.42H256.057V289.908H258.542V287.42Z" fill="#F0F0F0"/>
<path d="M258.542 291.596H256.057V294.084H258.542V291.596Z" fill="#F0F0F0"/>
<path d="M258.542 295.772H256.057V298.26H258.542V295.772Z" fill="#F0F0F0"/>
<path d="M254.589 216.432H252.104V218.919H254.589V216.432Z" fill="#F0F0F0"/>
<path d="M254.589 220.608H252.104V223.096H254.589V220.608Z" fill="#F0F0F0"/>
<path d="M254.589 224.784H252.104V227.272H254.589V224.784Z" fill="#F0F0F0"/>
<path d="M254.589 228.961H252.104V231.449H254.589V228.961Z" fill="#F0F0F0"/>
<path d="M254.589 233.137H252.104V235.625H254.589V233.137Z" fill="#F0F0F0"/>
<path d="M254.589 237.313H252.104V239.801H254.589V237.313Z" fill="#F0F0F0"/>
<path d="M254.589 241.49H252.104V243.978H254.589V241.49Z" fill="#F0F0F0"/>
<path d="M254.589 245.666H252.104V248.154H254.589V245.666Z" fill="#F0F0F0"/>
<path d="M254.589 249.843H252.104V252.33H254.589V249.843Z" fill="#F0F0F0"/>
<path d="M254.589 254.019H252.104V256.507H254.589V254.019Z" fill="#F0F0F0"/>
<path d="M254.589 258.185H252.104V260.673H254.589V258.185Z" fill="#F0F0F0"/>
<path d="M254.589 262.362H252.104V264.849H254.589V262.362Z" fill="#F0F0F0"/>
<path d="M254.589 266.538H252.104V269.026H254.589V266.538Z" fill="#F0F0F0"/>
<path d="M254.589 270.714H252.104V273.202H254.589V270.714Z" fill="#F0F0F0"/>
<path d="M254.589 274.891H252.104V277.378H254.589V274.891Z" fill="#F0F0F0"/>
<path d="M254.589 279.067H252.104V281.555H254.589V279.067Z" fill="#F0F0F0"/>
<path d="M254.589 283.243H252.104V285.731H254.589V283.243Z" fill="#F0F0F0"/>
<path d="M254.589 287.42H252.104V289.908H254.589V287.42Z" fill="#F0F0F0"/>
<path d="M254.589 291.596H252.104V294.084H254.589V291.596Z" fill="#F0F0F0"/>
<path d="M254.589 295.772H252.104V298.26H254.589V295.772Z" fill="#F0F0F0"/>
<path d="M278.004 232.698H275.519V235.185H278.004V232.698Z" fill="#F0F0F0"/>
<path d="M278.004 236.874H275.519V239.362H278.004V236.874Z" fill="#F0F0F0"/>
<path d="M278.004 241.05H275.519V243.538H278.004V241.05Z" fill="#F0F0F0"/>
<path d="M278.004 245.227H275.519V247.714H278.004V245.227Z" fill="#F0F0F0"/>
<path d="M278.004 249.403H275.519V251.891H278.004V249.403Z" fill="#F0F0F0"/>
<path d="M278.004 253.579H275.519V256.067H278.004V253.579Z" fill="#F0F0F0"/>
<path d="M278.004 257.746H275.519V260.233H278.004V257.746Z" fill="#F0F0F0"/>
<path d="M278.004 261.922H275.519V264.41H278.004V261.922Z" fill="#F0F0F0"/>
<path d="M278.004 266.098H275.519V268.586H278.004V266.098Z" fill="#F0F0F0"/>
<path d="M278.004 270.275H275.519V272.762H278.004V270.275Z" fill="#F0F0F0"/>
<path d="M274.052 232.698H271.567V235.185H274.052V232.698Z" fill="#F0F0F0"/>
<path d="M274.052 236.874H271.567V239.362H274.052V236.874Z" fill="#F0F0F0"/>
<path d="M274.052 241.05H271.567V243.538H274.052V241.05Z" fill="#F0F0F0"/>
<path d="M274.052 245.227H271.567V247.714H274.052V245.227Z" fill="#F0F0F0"/>
<path d="M274.052 249.403H271.567V251.891H274.052V249.403Z" fill="#F0F0F0"/>
<path d="M274.052 253.579H271.567V256.067H274.052V253.579Z" fill="#F0F0F0"/>
<path d="M274.052 257.746H271.567V260.233H274.052V257.746Z" fill="#F0F0F0"/>
<path d="M274.052 261.922H271.567V264.41H274.052V261.922Z" fill="#F0F0F0"/>
<path d="M274.052 266.098H271.567V268.586H274.052V266.098Z" fill="#F0F0F0"/>
<path d="M297.567 74.2454H293.395V307.123H297.567V74.2454Z" fill="#E0E0E0"/>
<path d="M376.115 74.2454H371.943V307.123H376.115V74.2454Z" fill="#E0E0E0"/>
<path d="M454.664 74.2454H450.492V307.123H454.664V74.2454Z" fill="#E0E0E0"/>
<path d="M187.888 338.655H153.365V288.869C153.365 286.441 155.331 284.462 157.766 284.462H183.496C185.922 284.462 187.898 286.431 187.898 288.869V338.655H187.888Z" fill="#F0F0F0"/>
<path d="M187.888 291.796H153.365V295.683H187.888V291.796Z" fill="#E6E6E6"/>
<path d="M181.6 332.091H172.997C171.689 332.091 170.631 333.15 170.631 334.459V338.655H183.966V334.459C183.966 333.15 182.908 332.091 181.6 332.091Z" fill="#E0E0E0"/>
<path d="M184.015 338.655H174.444C173.596 338.655 172.907 337.966 172.907 337.117C172.907 336.267 173.596 335.578 174.444 335.578H184.015C184.864 335.578 185.553 336.267 185.553 337.117C185.543 337.966 184.854 338.655 184.015 338.655Z" fill="#E6E6E6"/>
<path d="M337.289 63.287C349.922 60.3008 357.745 47.6277 354.762 34.981C351.779 22.3343 339.119 14.5029 326.486 17.4892C313.853 20.4754 306.029 33.1484 309.012 45.7952C311.996 58.4419 324.655 66.2733 337.289 63.287Z" fill="#E0E0E0"/>
<path d="M335.109 60.1544C346.007 58.3837 353.409 48.104 351.64 37.1939C349.871 26.2839 339.602 18.8749 328.704 20.6455C317.805 22.4162 310.404 32.6959 312.173 43.606C313.941 54.516 324.21 61.925 335.109 60.1544Z" fill="#F0F0F0"/>
<path d="M332.849 26.677V40.6648L342.111 35.4194" fill="#F0F0F0"/>
<path d="M332.849 26.677V40.6648L342.111 35.4194" stroke="#E0E0E0" stroke-width="2" stroke-miterlimit="10" stroke-linecap="round" stroke-linejoin="round"/>
<path d="M106.964 270.075C105.167 267.118 102.213 269.685 102.213 269.685C102.632 264.01 97.4223 260.134 97.4223 260.134C97.4223 260.134 103.481 260.134 104.329 254.349C105.177 248.564 102.213 251.251 99.4384 251.211C96.6638 251.171 93.7594 259.294 97.4223 263.85C101.085 268.416 100.097 276.21 91.6534 283.703C89.5874 285.531 88.1901 287.969 87.2419 290.597C87.8807 283.713 88.24 274.012 86.2139 267.537C82.7805 256.537 89.3279 253.579 91.2243 248.074C93.1306 242.569 86.2139 237.923 86.2139 237.923C86.2139 237.923 92.7114 234.966 89.5375 231.578C86.3636 228.191 79.8162 228.651 79.8162 233.077C79.8162 237.503 84.2577 239.192 84.2577 239.192C84.2577 239.192 89.3279 244.477 89.3279 247.235C89.3279 249.982 84.2577 255.907 84.2577 255.907C84.2577 255.907 86.5832 250.842 81.9322 250.622C77.2811 250.402 75.804 256.537 77.7103 259.294C79.6166 262.042 82.7805 259.714 82.7805 259.714C82.7805 259.714 83.1498 265.639 84.2377 269.236C84.7168 270.814 84.4872 277.019 84.088 283.473C83.1498 281.145 81.8323 279.007 79.9759 277.359C71.5222 269.865 70.5441 262.072 74.207 257.506C77.87 252.94 74.9656 244.827 72.1909 244.867C69.4163 244.907 66.452 242.209 67.3004 248.004C68.1487 253.799 74.207 253.789 74.207 253.789C74.207 253.789 68.9871 257.676 69.4163 263.341C69.4163 263.341 66.462 260.763 64.6654 263.73C61.4616 269.016 68.8873 272.293 70.1449 269.695C70.1449 269.695 85.9045 280.866 82.1018 296.942L82.9901 298.25C82.8803 299.549 82.8005 300.329 82.8005 300.329L84.0381 299.799L85.4454 301.867C85.3755 305.884 85.8047 308.851 85.8047 308.851L89.5774 303.286C85.7748 287.21 101.534 276.04 101.534 276.04C102.742 278.637 110.178 275.36 106.964 270.075Z" fill="#E0E0E0"/>
<path opacity="0.2" d="M106.964 270.075C105.167 267.118 102.213 269.685 102.213 269.685C102.632 264.01 97.4223 260.134 97.4223 260.134C97.4223 260.134 103.481 260.134 104.329 254.349C105.177 248.564 102.213 251.251 99.4384 251.211C96.6638 251.171 93.7594 259.294 97.4223 263.85C101.085 268.416 100.097 276.21 91.6534 283.703C89.5874 285.531 88.1901 287.969 87.2419 290.597C87.8807 283.713 88.24 274.012 86.2139 267.537C82.7805 256.537 89.3279 253.579 91.2243 248.074C93.1306 242.569 86.2139 237.923 86.2139 237.923C86.2139 237.923 92.7114 234.966 89.5375 231.578C86.3636 228.191 79.8162 228.651 79.8162 233.077C79.8162 237.503 84.2577 239.192 84.2577 239.192C84.2577 239.192 89.3279 244.477 89.3279 247.235C89.3279 249.982 84.2577 255.907 84.2577 255.907C84.2577 255.907 86.5832 250.842 81.9322 250.622C77.2811 250.402 75.804 256.537 77.7103 259.294C79.6166 262.042 82.7805 259.714 82.7805 259.714C82.7805 259.714 83.1498 265.639 84.2377 269.236C84.7168 270.814 84.4872 277.019 84.088 283.473C83.1498 281.145 81.8323 279.007 79.9759 277.359C71.5222 269.865 70.5441 262.072 74.207 257.506C77.87 252.94 74.9656 244.827 72.1909 244.867C69.4163 244.907 66.452 242.209 67.3004 248.004C68.1487 253.799 74.207 253.789 74.207 253.789C74.207 253.789 68.9871 257.676 69.4163 263.341C69.4163 263.341 66.462 260.763 64.6654 263.73C61.4616 269.016 68.8873 272.293 70.1449 269.695C70.1449 269.695 85.9045 280.866 82.1018 296.942L82.9901 298.25C82.8803 299.549 82.8005 300.329 82.8005 300.329L84.0381 299.799L85.4454 301.867C85.3755 305.884 85.8047 308.851 85.8047 308.851L89.5774 303.286C85.7748 287.21 101.534 276.04 101.534 276.04C102.742 278.637 110.178 275.36 106.964 270.075Z" fill="#E0E0E0"/>
<path d="M103.89 338.655H67.7794L63.8869 299.08H107.782L103.89 338.655Z" fill="#E6E6E6"/>
<path d="M109.709 294.713H61.9606V303.446H109.709V294.713Z" fill="#F0F0F0"/>
<path d="M259.739 383.896C366.616 383.896 453.257 378.832 453.257 372.586C453.257 366.339 366.616 361.275 259.739 361.275C152.863 361.275 66.2224 366.339 66.2224 372.586C66.2224 378.832 152.863 383.896 259.739 383.896Z" fill="#F5F5F5"/>
<path d="M419.881 341.093C420.031 340.074 423.524 315.945 416.527 307.612C414.98 305.764 413.024 304.805 410.719 304.745C396.596 304.415 394.66 315.775 394.64 315.885L396.306 316.145C396.366 315.735 398.043 306.124 410.679 306.433C412.505 306.473 414.002 307.223 415.24 308.701C421.757 316.455 418.254 340.604 418.214 340.843L419.881 341.093Z" fill="#FFBEDD"/>
<path d="M420.739 339.994L422.426 339.944C422.416 339.724 421.867 317.713 432.696 313.167C443.316 308.711 448.087 317.873 448.286 318.263L449.793 317.504C449.733 317.394 444.134 306.533 432.048 311.609C420.141 316.594 420.709 339.035 420.739 339.994Z" fill="#FFBEDD"/>
<path d="M420.689 341.723C420.689 341.373 420.789 306.563 427.566 296.382C434.074 286.611 444.573 291.207 445.023 291.406L445.721 289.868C445.601 289.808 433.485 284.462 426.169 295.443C419.112 306.044 419.003 340.264 419.003 341.723H420.689Z" fill="#FFBEDD"/>
<path d="M408.702 305.584C408.702 305.584 414.871 307.862 413.034 313.237C411.198 318.613 391.695 327.455 391.695 327.455C391.695 327.455 383.531 319.961 391.027 307.772C398.532 295.573 408.533 301.737 408.702 305.584Z" fill="#FF64AE"/>
<path d="M427.876 294.544C427.876 294.544 423.494 294.074 423.853 291.406C424.203 288.739 440.871 281.865 450.712 292.975C450.712 292.975 444.414 303.805 435.311 303.945C426.199 304.085 427.876 294.544 427.876 294.544Z" fill="#FF64AE"/>
<path d="M432.367 312.378C432.367 312.378 429.343 309.94 432.606 308.741C435.87 307.552 451.869 307.892 452.039 323.758C452.039 323.758 433.405 326.855 431.099 320.811C428.784 314.776 432.367 312.378 432.367 312.378Z" fill="#FF64AE"/>
<path d="M405.379 373.415H434.303L437.427 341.713H402.265L405.379 373.415Z" fill="#ACB5FF"/>
<path d="M400.724 345.219H438.971V338.225H400.724V345.219Z" fill="#4754C7"/>
<path d="M372.652 350.694L343.897 347.867V307.412H332.499V347.857L303.625 350.694C300.76 350.974 298.575 353.392 298.575 356.27V360.596H337.081H339.196H377.702V356.27C377.702 353.392 375.516 350.974 372.652 350.694Z" fill="#263238"/>
<path opacity="0.2" d="M372.652 350.694L343.897 347.867V307.412H332.499V347.857L303.625 350.694C300.76 350.974 298.575 353.392 298.575 356.27V360.596H337.081H339.196H377.702V356.27C377.702 353.392 375.516 350.974 372.652 350.694Z" fill="white"/>
<path d="M301.609 373.425C305.726 373.425 309.064 370.083 309.064 365.961C309.064 361.839 305.726 358.498 301.609 358.498C297.491 358.498 294.153 361.839 294.153 365.961C294.153 370.083 297.491 373.425 301.609 373.425Z" fill="#263238"/>
<path d="M374.658 373.425C378.776 373.425 382.114 370.083 382.114 365.961C382.114 361.839 378.776 358.498 374.658 358.498C370.54 358.498 367.202 361.839 367.202 365.961C367.202 370.083 370.54 373.425 374.658 373.425Z" fill="#263238"/>
<path d="M341.732 316.105H334.655C332.38 316.105 330.533 314.256 330.533 311.978V280.076H345.854V311.978C345.854 314.256 344.007 316.105 341.732 316.105Z" fill="#263238"/>
<path opacity="0.3" d="M341.732 316.105H334.655C332.38 316.105 330.533 314.256 330.533 311.978V280.076H345.854V311.978C345.854 314.256 344.007 316.105 341.732 316.105Z" fill="white"/>
<path d="M365.436 216.831C365.436 216.831 367.612 270.784 352.601 280.066H369.728C369.728 280.066 383.002 261.682 379.249 216.831H365.436Z" fill="#263238"/>
<path opacity="0.3" d="M365.436 216.831C365.436 216.831 367.612 270.784 352.601 280.066H369.728C369.728 280.066 383.002 261.682 379.249 216.831H365.436Z" fill="white"/>
<path d="M303.795 272.523H370.586C373.341 272.523 375.576 274.761 375.576 277.518V284.203H298.804V277.518C298.804 274.761 301.03 272.523 303.795 272.523Z" fill="#263238"/>
<path d="M297.607 278.367H376.764C377.872 278.367 378.77 279.267 378.77 280.376V282.194C378.77 283.303 377.872 284.202 376.764 284.202H297.607C296.499 284.202 295.6 283.303 295.6 282.194V280.376C295.6 279.267 296.499 278.367 297.607 278.367Z" fill="#263238"/>
<path opacity="0.6" d="M297.607 278.367H376.764C377.872 278.367 378.77 279.267 378.77 280.376V282.194C378.77 283.303 377.872 284.202 376.764 284.202H297.607C296.499 284.202 295.6 283.303 295.6 282.194V280.376C295.6 279.267 296.499 278.367 297.607 278.367Z" fill="white"/>
<path d="M383.461 227.792H356.014C347.979 227.792 341.462 221.267 341.462 213.224V202.484C341.462 194.441 347.979 187.916 356.014 187.916H383.451C391.486 187.916 398.003 194.441 398.003 202.484V213.224C398.013 221.267 391.496 227.792 383.461 227.792Z" fill="#263238"/>
<path d="M272.764 143.825L267.285 129.367C267.285 129.367 269.63 127.189 268.024 124.981C266.417 122.773 256.306 116.558 254.46 117.657C252.613 118.747 248.531 122.863 250.737 125.151C252.953 127.439 262.744 131.246 262.744 131.246L267.584 150.219L272.764 143.825Z" fill="#FFCCAF"/>
<path d="M311.031 171.311C311.031 171.311 286.109 166.185 283.404 164.956C280.699 163.727 270.668 134.323 270.668 134.323L262.983 137.92C262.983 137.92 269.171 167.434 275.499 174.458C281.827 181.472 308.825 187.417 308.825 187.417L311.031 171.311Z" fill="#4754C7"/>
<path d="M270.788 133.743L272.375 136.811L262.494 140.218L262.873 136.471L270.788 133.743Z" fill="#4754C7"/>
<path d="M346.163 150.948C346.163 150.948 347.63 164.766 342.51 168.163C337.4 171.56 312.238 167.584 309.384 162.019C306.529 156.464 317.269 141.367 317.269 141.367L346.163 150.948Z" fill="#263238"/>
<path d="M244.369 332.77L250.926 334.359L254.25 325.287L257.264 317.034L249.789 313.847L246.914 323.858L244.369 332.77Z" fill="#FFCCAF"/>
<path opacity="0.2" d="M246.914 323.858L254.25 325.287L257.264 317.034L249.789 313.847L246.914 323.858Z" fill="black"/>
<path d="M247.573 319.072L256.675 322.459C256.675 322.459 280.959 261.682 285.949 261.472C290.939 261.262 341.752 284.642 354.487 271.673C367.222 258.715 348.808 227.472 348.808 227.472C348.808 227.472 318.177 223.096 315.871 230.02C315.422 231.358 314.933 233.986 314.574 236.234C314.225 238.352 313.985 240.131 313.985 240.131C313.985 240.131 313.975 240.131 313.965 240.121C313.017 239.881 282.266 231.938 270.149 240.131C257.843 248.464 247.573 319.072 247.573 319.072Z" fill="#ACB5FF"/>
<path d="M299.932 358.698L306.47 357.019L305.212 347.627L304.044 339.015L295.96 339.744L298.056 349.785L299.932 358.698Z" fill="#FFCCAF"/>
<path opacity="0.2" d="M298.106 349.985L305.262 347.807L304.064 339.105L295.97 339.794L298.106 349.985Z" fill="black"/>
<path d="M260.438 319.082L247.184 314.576L246.615 320.011L256.665 323.568L260.438 319.082Z" fill="#4754C7"/>
<path d="M332.489 274.791C332.489 274.791 330.413 274.84 298.285 273.342C298.285 273.342 303.086 313.557 305.711 343.651L296.099 345.289C296.099 345.289 273.144 280.835 273.393 270.594C273.643 260.353 285.37 257.356 285.37 257.356C285.37 257.356 308.266 270.594 332.489 274.791Z" fill="#919CFF"/>
<path d="M307.118 340.733L293.914 342.242L296.459 347.417L307.148 346.049L307.118 340.733Z" fill="#4754C7"/>
<path opacity="0.1" d="M313.985 240.131L331.9 243.867C331.9 243.867 322 238.392 314.574 236.234C314.224 238.352 313.985 240.131 313.985 240.131Z" fill="black"/>
<path d="M348.069 222.706L348.808 227.472L315.871 230.02L315.003 224.375L348.069 222.706Z" fill="#263238"/>
<path opacity="0.2" d="M348.069 222.706L348.808 227.472L315.871 230.02L315.003 224.375L348.069 222.706Z" fill="black"/>
<path d="M337.659 230.685L339.288 230.517L338.435 222.218L336.807 222.385L337.659 230.685Z" fill="#407BFF"/>
<path d="M323.08 229.846L330.291 229.382L329.94 223.908L322.729 224.372L323.08 229.846Z" fill="white"/>
<path d="M317.491 231.579L319.119 231.412L318.267 223.113L316.639 223.281L317.491 231.579Z" fill="#407BFF"/>
<path opacity="0.6" d="M337.659 230.685L339.288 230.517L338.435 222.218L336.807 222.385L337.659 230.685Z" fill="white"/>
<path opacity="0.6" d="M317.491 231.579L319.119 231.412L318.267 223.113L316.639 223.281L317.491 231.579Z" fill="white"/>
<path d="M310.432 170.851C310.432 170.851 318.836 173.489 329.405 172.949C339.975 172.41 352.611 177.545 352.611 177.545L348.069 222.696L315.003 224.364C315.003 224.374 303.894 186.667 310.432 170.851Z" fill="#ACB5FF"/>
<path d="M315.742 145.353C315.742 145.353 317.598 123.422 335.913 131.395C358.898 141.397 340.624 168.103 329.395 162.618C318.167 157.143 315.742 145.353 315.742 145.353Z" fill="#263238"/>
<path opacity="0.2" d="M320.872 174.178L321.401 186.568L325.503 180.743C325.503 180.743 324.036 194.451 324.894 201.904C324.894 201.904 325.682 188.526 327.539 180.743L331.9 186.568L338.158 174.258C338.168 174.258 328.038 170.611 320.872 174.178Z" fill="black"/>
<path d="M326.551 176.486L336.023 173.808C330.184 169.792 333.128 160.8 333.128 160.8L323.746 164.097C324.245 165.656 324.565 166.974 324.754 168.113C325.732 173.968 323.087 174.438 323.087 174.438L326.551 176.486Z" fill="#FFCCAF"/>
<path opacity="0.2" d="M323.746 164.097C324.245 165.656 324.565 166.974 324.754 168.113C329.246 166.315 333.128 160.8 333.128 160.8L323.746 164.097Z" fill="black"/>
<path d="M329.864 136.001C321.56 134.163 317.897 138.02 315.392 146.452C312.268 156.993 312.957 165.126 323.846 165.136C338.648 165.156 343.658 139.059 329.864 136.001Z" fill="#FFCCAF"/>
<path d="M320.872 147.182C320.872 147.182 319.245 149.1 317.688 150.099C317.688 150.099 318.147 151.388 319.674 151.528L320.872 147.182Z" fill="#DE5753"/>
<path d="M326.102 147.622C325.932 148.301 326.162 148.94 326.621 149.05C327.07 149.16 327.579 148.701 327.738 148.021C327.908 147.342 327.679 146.702 327.219 146.592C326.77 146.483 326.271 146.942 326.102 147.622Z" fill="#263238"/>
<path d="M327.408 146.672L326.071 145.733C326.071 145.733 326.5 147.162 327.408 146.672Z" fill="#263238"/>
<path d="M317.698 145.403C317.528 146.083 317.758 146.722 318.217 146.832C318.666 146.942 319.175 146.483 319.335 145.803C319.504 145.124 319.275 144.484 318.816 144.374C318.367 144.264 317.868 144.724 317.698 145.403Z" fill="#263238"/>
<path d="M319.004 144.454L317.667 143.515C317.667 143.515 318.096 144.934 319.004 144.454Z" fill="#263238"/>
<path d="M327.459 141.896C327.459 141.896 329.864 142.106 330.783 143.955" stroke="#263238" stroke-width="0.7247" stroke-miterlimit="10" stroke-linecap="round" stroke-linejoin="round"/>
<path d="M321.501 140.208C321.501 140.208 320.153 139.339 318.037 140.158" stroke="#263238" stroke-width="0.7247" stroke-miterlimit="10" stroke-linecap="round" stroke-linejoin="round"/>
<path d="M335.843 152.028C335.843 152.028 333.467 144.334 335.224 139.189C335.224 139.189 320.253 128.808 315.742 145.354C315.742 145.354 317.418 130.147 331.771 132.974C346.103 135.802 341.442 156.704 332.689 161.3C332.689 161.31 337.3 156.834 335.843 152.028Z" fill="#263238"/>
<path d="M334.096 153.476C334.446 152.147 336.332 150.189 338.757 151.008C341.272 151.858 341.322 157.423 334.645 157.273C333.687 157.263 333.368 156.254 334.096 153.476Z" fill="#E4897B"/>
<path d="M318.187 154.675C318.476 155.774 318.616 157.763 318.616 157.763C318.796 157.783 318.985 157.803 319.165 157.813C321.64 158.022 322.868 157.303 323.467 156.434C323.796 155.964 323.926 155.435 323.986 155.005C324.056 154.505 323.986 154.136 323.986 154.136C322.608 154.805 320.273 154.795 319.035 154.725C318.506 154.715 318.187 154.675 318.187 154.675Z" fill="#263238"/>
<path d="M319.035 154.735L319.185 155.644C321.52 155.834 323.197 155.664 323.986 155.015C324.056 154.515 323.986 154.146 323.986 154.146C322.598 154.815 320.273 154.795 319.035 154.735Z" fill="white"/>
<path d="M319.165 157.822C321.64 158.032 322.868 157.313 323.467 156.444C322.618 156.404 321.59 156.454 320.662 156.753C319.953 156.983 319.484 157.393 319.165 157.822Z" fill="#DE5753"/>
<path d="M329.894 136.661C329.894 136.661 330.214 151.088 338.857 152.817C347.5 154.545 338.049 134.283 338.049 134.283C338.049 134.283 325.173 125.87 316.6 131.795C308.016 137.73 315.732 145.353 315.732 145.353C315.732 145.353 317.558 134.643 329.894 136.661Z" fill="#263238"/>
<path d="M330.194 135.712C330.194 135.712 327.11 144.834 333.198 149.62" stroke="#263238" stroke-width="0.5" stroke-miterlimit="10" stroke-linecap="round" stroke-linejoin="round"/>
<path d="M341.382 155.784C340.284 158.722 337.46 160.37 335.074 159.471C332.689 158.572 331.651 155.474 332.749 152.537C333.847 149.6 336.671 147.951 339.057 148.85C341.442 149.749 342.49 152.857 341.382 155.784Z" fill="#407BFF"/>
<path opacity="0.4" d="M341.382 155.784C340.284 158.722 337.46 160.37 335.074 159.471C332.689 158.572 331.651 155.474 332.749 152.537C333.847 149.6 336.671 147.951 339.057 148.85C341.442 149.749 342.49 152.857 341.382 155.784Z" fill="black"/>
<path d="M338.637 150.978C338.637 150.978 342.221 134.922 334.186 130.716C334.186 130.716 335.863 130.946 336.901 131.246C337.939 131.545 344.356 138.06 341.113 152.487L338.637 150.978Z" fill="white"/>
<path d="M323.566 160.17C323.367 160.14 323.167 160.11 322.968 160.08L323.127 159.091C330.363 160.27 335.743 156.444 335.793 156.404L336.382 157.213C336.162 157.373 330.932 161.139 323.566 160.17Z" fill="white"/>
<path d="M341.053 155.385C340.324 157.323 338.458 158.412 336.881 157.822C335.304 157.233 334.615 155.175 335.344 153.236C336.072 151.298 337.939 150.209 339.516 150.799C341.093 151.398 341.781 153.446 341.053 155.385Z" fill="#407BFF"/>
<path d="M322.678 160.49L321.88 160.38C321.281 160.3 320.862 159.761 320.942 159.161C321.021 158.562 321.56 158.142 322.159 158.222L322.958 158.332C323.557 158.412 323.966 158.952 323.896 159.551C323.816 160.15 323.267 160.57 322.678 160.49Z" fill="#407BFF"/>
<path opacity="0.4" d="M322.678 160.49L321.88 160.38C321.281 160.3 320.862 159.761 320.942 159.161C321.021 158.562 321.56 158.142 322.159 158.222L322.958 158.332C323.557 158.412 323.966 158.952 323.896 159.551C323.816 160.15 323.267 160.57 322.678 160.49Z" fill="black"/>
<path d="M333.477 170.372L327.549 176.197L329.914 183.34L338.168 174.258L333.477 170.372Z" fill="#4754C7"/>
<path d="M324.904 171.59L325.862 176.076L322.788 182.421L320.872 174.178L324.904 171.59Z" fill="#4754C7"/>
<path d="M332.21 175.427L335.653 162.808C335.653 162.808 333.986 159.661 334.346 159.011C334.705 158.352 336.502 149.879 337.779 148.96C339.057 148.041 344.307 149.61 344.845 150.469C345.374 151.328 339.815 162.808 339.815 162.808L337.789 176.476L332.21 175.427Z" fill="#FFCCAF"/>
<path d="M352.611 177.545C362.082 187.257 343.089 209.258 332.21 208.319C321.331 207.379 332.479 167.494 332.479 167.494L339.446 168.643C339.446 168.643 337.001 185.908 337.769 187.257C338.548 188.616 349.427 174.288 352.611 177.545Z" fill="#4754C7"/>
<path d="M331.9 166.215L330.872 169.512L340.584 170.372V167.494L331.9 166.215Z" fill="#4754C7"/>
<path opacity="0.6" d="M317.189 201.315H313.256C312.817 201.315 312.468 200.965 312.468 200.525V193.092C312.468 192.652 312.817 192.302 313.256 192.302H317.189C317.628 192.302 317.977 192.652 317.977 193.092V200.525C317.977 200.965 317.628 201.315 317.189 201.315Z" fill="white"/>
<path opacity="0.2" d="M317.269 192.892H312.797V199.017H317.269V192.892Z" fill="black"/>
<path d="M315.622 190.134H314.634V193.741H315.622V190.134Z" fill="#263238"/>
<path d="M233.5 345.539C234.498 345.079 235.576 344.81 236.664 344.73C236.664 344.73 240.457 342.492 244.209 333.819L248.431 333.799C249.898 333.819 251.186 334.749 251.675 336.127C251.745 336.317 251.785 336.517 251.795 336.717C251.755 337.736 251.645 338.755 251.465 339.764C251.086 342.931 249 349.715 249 349.715L248.282 349.536L249.579 343.221C250.008 341.073 247.763 343.151 246.715 345.309C245.667 347.467 244.07 349.646 239.399 348.576C233.989 347.298 231.793 346.518 233.5 345.539Z" fill="#172176"/>
<path d="M244.978 331.541C244.978 331.541 239.698 342.592 236.664 344.73C236.664 344.73 240.736 347.158 244.978 341.752C250.457 334.758 251.805 336.707 251.805 336.707C251.805 336.707 251.575 334.309 251.146 333.14C250.318 330.882 244.978 331.541 244.978 331.541Z" fill="#FFCCAF"/>
<path d="M291.608 371.866C292.466 371.187 293.445 370.667 294.493 370.327C294.493 370.327 297.646 367.26 299.243 357.938L303.345 356.909C304.773 356.58 306.25 357.169 307.048 358.398C307.158 358.568 307.248 358.748 307.308 358.937C307.507 359.937 307.647 360.956 307.717 361.975C308.096 365.142 307.677 372.226 307.677 372.226L306.939 372.216L306.709 365.771C306.619 363.583 304.922 366.131 304.423 368.479C303.924 370.827 302.876 373.325 298.096 373.395C292.496 373.465 290.181 373.225 291.608 371.866Z" fill="#172176"/>
<path d="M299.443 355.55C299.443 355.55 296.938 367.54 294.492 370.328C294.492 370.328 299.024 371.726 301.858 365.462C305.531 357.359 307.298 358.947 307.298 358.947C307.298 358.947 306.509 356.679 305.811 355.64C304.473 353.642 299.443 355.55 299.443 355.55Z" fill="#FFCCAF"/>
<path d="M392.244 138.769H357.391C354.597 138.769 352.331 136.501 352.331 133.704V118.777C352.331 115.979 354.597 113.711 357.391 113.711H392.244C395.039 113.711 397.294 115.979 397.294 118.777V133.704C397.304 136.501 395.039 138.769 392.244 138.769Z" fill="#FF64AE"/>
<path d="M364.388 135.912L353.898 150.199L370.835 136.871L364.388 135.912Z" fill="#FF64AE"/>
<path d="M364.787 126.24C364.787 127.049 364.128 127.719 363.31 127.719C362.492 127.719 361.833 127.059 361.833 126.24C361.833 125.431 362.492 124.761 363.31 124.761C364.128 124.761 364.787 125.431 364.787 126.24Z" fill="white"/>
<path d="M372.462 126.24C372.462 127.049 371.804 127.719 370.985 127.719C370.177 127.719 369.508 127.059 369.508 126.24C369.508 125.431 370.167 124.761 370.985 124.761C371.804 124.771 372.462 125.431 372.462 126.24Z" fill="white"/>
<path d="M380.138 126.24C380.138 127.049 379.479 127.719 378.66 127.719C377.842 127.719 377.183 127.059 377.183 126.24C377.183 125.431 377.842 124.761 378.66 124.761C379.479 124.761 380.138 125.431 380.138 126.24Z" fill="white"/>
<path d="M387.803 126.24C387.803 127.049 387.144 127.719 386.326 127.719C385.507 127.719 384.848 127.059 384.848 126.24C384.848 125.431 385.507 124.761 386.326 124.761C387.144 124.761 387.803 125.431 387.803 126.24Z" fill="white"/>
<path d="M252.184 119.066L227.332 105.668C226.663 105.308 226.404 104.469 226.773 103.79L234.698 89.0626C235.057 88.3932 235.895 88.1334 236.574 88.5031L261.426 101.901C262.095 102.261 262.354 103.1 261.985 103.78L254.06 118.507C253.701 119.176 252.863 119.436 252.184 119.066Z" fill="#ACB5FF"/>
<path opacity="0.2" d="M234.049 90.2815L241.824 104.819C242.433 105.948 243.66 106.607 244.928 106.477L261.107 104.879L244.629 107.307C243.151 107.526 241.704 106.747 241.075 105.388L234.049 90.2815Z" fill="black"/>
<path d="M215.175 87.5738C215.435 82.0186 219.547 70.8184 224.547 67.3913C229.548 63.9643 226.254 68.7102 226.254 68.7102C226.254 68.7102 230.995 64.0942 233.49 64.2341C235.995 64.364 233.49 67.2615 233.49 67.2615C233.49 67.2615 238.62 64.0942 240.996 64.2241C243.361 64.354 240.996 67.1216 240.996 67.1216C240.996 67.1216 245.207 64.0942 246.914 65.543C248.621 66.9917 225.066 82.5382 222.431 88.8627C219.806 95.1872 214.906 93.1989 215.175 87.5738Z" fill="#FF64AE"/>
<path d="M235.406 86.7544L238.55 88.7726C238.78 88.9225 238.66 89.2722 238.391 89.2522L235.087 88.9924L235.366 91.5302C235.396 91.81 235.057 91.9599 234.867 91.75L232.961 89.5919L235.406 86.7544Z" fill="#407BFF"/>
<path opacity="0.3" d="M235.406 86.7544L238.55 88.7726C238.78 88.9225 238.66 89.2722 238.391 89.2522L235.087 88.9924L235.366 91.5302C235.396 91.81 235.057 91.9599 234.867 91.75L232.961 89.5919L235.406 86.7544Z" fill="white"/>
<path d="M191.251 74.2454C191.251 74.2454 195.593 71.218 202.18 73.1863C202.18 73.1863 204.077 81.8788 209.247 84.7762C212.091 86.3648 219.048 86.235 224.557 84.4465C231.095 82.3284 234.299 82.3284 235.486 84.7762C236.604 87.0942 235.356 89.7819 230.356 90.9708C225.356 92.1598 221.403 100.852 212.321 100.982C203.238 101.112 198.458 91.9999 200.743 83.9869C200.723 83.9869 197.959 78.0221 191.251 74.2454Z" fill="#FFBEDD"/>
<path d="M232.971 86.4247C232.971 86.6745 232.771 86.8643 232.532 86.8643C232.292 86.8643 232.083 86.6645 232.083 86.4247C232.083 86.1749 232.282 85.9751 232.532 85.9751C232.781 85.9751 232.971 86.1849 232.971 86.4247Z" fill="#263238"/>
<path d="M210.195 93.7484C204.835 95.2171 192.918 94.7575 188.118 91.0508C183.317 87.344 188.846 89.0125 188.846 89.0125C188.846 89.0125 182.997 85.9252 182.359 83.5073C181.71 81.0894 185.233 82.5681 185.233 82.5681C185.233 82.5681 180.642 78.6615 180.033 76.3635C179.434 74.0655 182.788 75.4643 182.788 75.4643C182.788 75.4643 178.606 72.387 179.454 70.3088C180.303 68.2306 202.35 85.8653 209.167 86.4248C216.004 86.9843 215.625 92.2697 210.195 93.7484Z" fill="#FF64AE"/>
<path d="M175.073 69.0698C174.134 68.7401 173.186 68.4204 172.228 68.1306" stroke="#407BFF" stroke-width="0.75" stroke-linecap="round" stroke-linejoin="round"/>
<path d="M166.389 66.642C162.896 65.9126 159.333 65.433 155.8 65.1833C146.098 64.5039 130.878 63.5447 124.939 73.2263C119.52 82.0486 128.842 97.0955 132.145 105.288C136.198 115.32 141.018 127.719 136.227 138.34C126.386 160.161 84.2776 148.83 70.075 128.728" stroke="#407BFF" stroke-width="0.75" stroke-linecap="round" stroke-linejoin="round" stroke-dasharray="6.03 6.03"/>
<path d="M68.468 126.2C67.969 125.321 67.5199 124.422 67.1406 123.512" stroke="#407BFF" stroke-width="0.75" stroke-linecap="round" stroke-linejoin="round"/>
<path d="M189.685 205.531H151.797V213.304H189.685V205.531Z" fill="white"/>
<path opacity="0.1" d="M189.685 205.531H151.797V213.304H189.685V205.531Z" fill="black"/>
<path opacity="0.1" d="M167.757 205.531H151.797V213.304H167.757V205.531Z" fill="black"/>
<path opacity="0.1" d="M151.797 206.65H185.523L151.797 207.609V206.65Z" fill="black"/>
<path opacity="0.1" d="M189.685 207.999L160.451 208.728H189.685V207.999Z" fill="black"/>
<path opacity="0.1" d="M153.345 210.177L167.757 209.587L188.946 210.177L167.757 210.507L153.345 210.177Z" fill="black"/>
<path opacity="0.1" d="M151.797 211.825H176.769L151.797 212.415V211.825Z" fill="black"/>
<path opacity="0.1" d="M189.635 212.415L172.957 212.725H189.685L189.635 212.415Z" fill="black"/>
<path d="M184.415 197.758H146.528V205.531H184.415V197.758Z" fill="white"/>
<path opacity="0.1" d="M184.415 197.758H146.528V205.531H184.415V197.758Z" fill="black"/>
<path opacity="0.1" d="M162.487 197.758H146.528V205.531H162.487V197.758Z" fill="black"/>
<path opacity="0.1" d="M146.528 198.877H180.253L146.528 199.826V198.877Z" fill="black"/>
<path opacity="0.1" d="M184.415 200.226L155.181 200.945H184.415V200.226Z" fill="black"/>
<path opacity="0.1" d="M148.075 202.394L162.487 201.804L183.676 202.394L162.487 202.723L148.075 202.394Z" fill="black"/>
<path opacity="0.1" d="M146.528 204.042H171.5L146.528 204.642V204.042Z" fill="black"/>
<path opacity="0.1" d="M184.355 204.642L167.687 204.952H184.415L184.355 204.642Z" fill="black"/>
<path d="M188.736 189.975H150.849V197.748H188.736V189.975Z" fill="white"/>
<path opacity="0.1" d="M188.736 189.975H150.849V197.748H188.736V189.975Z" fill="black"/>
<path opacity="0.1" d="M166.809 189.975H150.849V197.748H166.809V189.975Z" fill="black"/>
<path opacity="0.1" d="M150.849 191.094H184.574L150.849 192.053V191.094Z" fill="black"/>
<path opacity="0.1" d="M188.736 192.442L159.503 193.172H188.736V192.442Z" fill="black"/>
<path opacity="0.1" d="M152.396 194.62L166.809 194.031L187.998 194.62L166.809 194.95L152.396 194.62Z" fill="black"/>
<path opacity="0.1" d="M150.849 196.269H175.821L150.849 196.859V196.269Z" fill="black"/>
<path opacity="0.1" d="M188.686 196.859L172.009 197.168H188.736L188.686 196.859Z" fill="black"/>
<path d="M213.978 213.144L214.966 209.418H255.438L274.072 211.286L274.78 213.144H213.978Z" fill="#263238"/>
<path opacity="0.4" d="M255.438 209.418V213.144H213.978L214.966 209.418H255.438Z" fill="black"/>
<path d="M247.304 191.583C247.483 193.552 246.046 195.15 244.09 195.15H182.089C180.123 195.15 178.386 193.552 178.207 191.583L174.524 151.848C174.484 151.438 174.514 151.049 174.604 150.689C174.953 149.29 176.181 148.281 177.738 148.281H239.738C241.704 148.281 243.441 149.88 243.621 151.848L247.304 191.583Z" fill="#263238"/>
<path opacity="0.4" d="M243.87 195.15H182.089C180.123 195.15 178.386 193.552 178.207 191.583L174.524 151.848C174.484 151.438 174.514 151.049 174.604 150.689H236.385C238.341 150.689 240.077 152.288 240.267 154.256L243.95 193.991C243.99 194.401 243.96 194.791 243.87 195.15Z" fill="white"/>
<path d="M201.272 170.781H214.107L210.684 207.54L230.965 210.587V213.145H188.247V210.587L197 207.54L201.272 170.781Z" fill="#263238"/>
<path opacity="0.1" d="M214.107 170.781L204.596 212.565L197 212.335L201.272 170.781H214.107Z" fill="white"/>
<path d="M214.048 373.415H207.929L196.941 220.298H205.055L214.048 373.415Z" fill="#263238"/>
<path opacity="0.4" d="M214.048 373.414H207.929L197.479 227.911L196.941 220.547H205.055L205.494 227.911L214.048 373.414Z" fill="white"/>
<path opacity="0.2" d="M205.494 227.541H197.479L196.941 220.547H205.055L205.494 227.541Z" fill="black"/>
<path d="M258.921 373.415H252.803L251.805 220.298H259.919L258.921 373.415Z" fill="#263238"/>
<path opacity="0.5" d="M259.919 220.547L259.759 245.256L258.921 373.414H252.803L251.965 245.256L251.805 220.547H259.919Z" fill="white"/>
<path opacity="0.2" d="M259.919 220.547L259.759 245.526H251.965L251.805 220.547H259.919Z" fill="black"/>
<path d="M323.836 373.415H317.718L306.729 220.298H314.843L323.836 373.415Z" fill="#263238"/>
<path opacity="0.5" d="M323.836 373.414H317.718L307.268 227.911L306.729 220.547H314.843L315.283 227.911L323.836 373.414Z" fill="white"/>
<path opacity="0.2" d="M315.283 227.541H307.268L306.729 220.547H314.843L315.283 227.541Z" fill="black"/>
<path d="M144.092 373.415H137.984L146.967 220.298H155.081L144.092 373.415Z" fill="#263238"/>
<path opacity="0.5" d="M155.081 220.547L154.542 227.911L144.092 373.414H137.984L146.528 227.911L146.967 220.547H155.081Z" fill="white"/>
<path opacity="0.2" d="M146.967 220.548H155.081L154.542 227.542H146.528L146.967 220.548Z" fill="black"/>
<path d="M319.115 224.135H142.695C141.507 224.135 140.539 223.166 140.539 221.977V216.472H321.271V221.977C321.271 223.166 320.313 224.135 319.115 224.135Z" fill="#FF64AE"/>
<path opacity="0.2" d="M321.271 216.472H140.539V220.308H321.271V216.472Z" fill="black"/>
<path d="M325.064 217.471H136.746C135.559 217.471 134.591 216.502 134.591 215.313C134.591 214.124 135.559 213.155 136.746 213.155H325.064C326.251 213.155 327.219 214.124 327.219 215.313C327.219 216.502 326.251 217.471 325.064 217.471Z" fill="#FF64AE"/>
<path d="M280.509 206.49L282.825 203.013C283.284 202.324 284.063 201.904 284.901 201.904H287.835C288.085 201.904 288.324 201.944 288.554 202.014L299.024 205.191C299.623 205.371 300.122 205.771 300.441 206.3L301.938 208.828L280.509 206.49Z" fill="#407BFF"/>
<path opacity="0.2" d="M301.948 208.828L286.708 207.17L280.509 206.49L282.825 203.013C283.284 202.324 284.063 201.904 284.901 201.904H287.835C288.085 201.904 288.324 201.944 288.564 202.014L288.794 202.084L299.024 205.191C299.623 205.371 300.132 205.761 300.451 206.3L301.948 208.828Z" fill="black"/>
<path opacity="0.2" d="M301.948 208.828L286.708 207.17L288.794 202.084L299.024 205.192C299.623 205.371 300.132 205.761 300.451 206.301L301.948 208.828Z" fill="black"/>
<path d="M309.194 212.815V213.145H295.91H276.837L278.034 208.459C278.503 206.7 280.1 205.471 281.917 205.471H296.269C296.748 205.471 297.217 205.551 297.666 205.721L299.463 206.39L306.589 209.048C308.156 209.638 309.194 211.136 309.194 212.815Z" fill="#407BFF"/>
<path opacity="0.2" d="M309.194 212.815V213.145H295.91L296.618 208.079C296.808 206.74 298.195 205.921 299.463 206.39L306.589 209.048C308.156 209.638 309.194 211.136 309.194 212.815Z" fill="black"/>
<path d="M297.976 209.708L302.198 197.009C302.377 196.459 303.006 196.209 303.525 196.469C303.914 196.669 304.114 197.119 304.004 197.548L300.441 211.106C300.451 211.096 298.076 212.056 297.976 209.708Z" fill="#263238"/>
<path opacity="0.2" d="M280.509 212.095H278.633L278.992 210.247H280.869L280.509 212.095Z" fill="black"/>
<path opacity="0.2" d="M283.304 212.025H281.428L281.787 210.177H283.663L283.304 212.025Z" fill="black"/>
</svg>
