<svg width="23" height="26" viewBox="0 0 23 26" fill="none" xmlns="http://www.w3.org/2000/svg">
<path d="M11.5049 6.66661C8.39941 6.66661 5.89453 9.45593 5.89453 12.914C5.89453 16.3721 8.39941 19.1615 11.5049 19.1615C14.6104 19.1615 17.1152 16.3721 17.1152 12.914C17.1152 9.45593 14.6104 6.66661 11.5049 6.66661ZM11.5049 16.9757C9.49805 16.9757 7.85742 15.1542 7.85742 12.914C7.85742 10.6739 9.49316 8.85239 11.5049 8.85239C13.5166 8.85239 15.1523 10.6739 15.1523 12.914C15.1523 15.1542 13.5117 16.9757 11.5049 16.9757ZM18.6533 6.41106C18.6533 7.22121 18.0674 7.86825 17.3447 7.86825C16.6172 7.86825 16.0361 7.21577 16.0361 6.41106C16.0361 5.60634 16.6221 4.95387 17.3447 4.95387C18.0674 4.95387 18.6533 5.60634 18.6533 6.41106ZM22.3691 7.89C22.2861 5.93802 21.8857 4.20896 20.6016 2.7844C19.3223 1.35983 17.7695 0.913977 16.0166 0.816106C14.21 0.701923 8.79492 0.701923 6.98828 0.816106C5.24023 0.908539 3.6875 1.3544 2.40332 2.77896C1.11914 4.20353 0.723633 5.93258 0.635742 7.88456C0.533203 9.89635 0.533203 15.9263 0.635742 17.9381C0.71875 19.8901 1.11914 21.6191 2.40332 23.0437C3.6875 24.4682 5.23535 24.9141 6.98828 25.012C8.79492 25.1261 14.21 25.1261 16.0166 25.012C17.7695 24.9195 19.3223 24.4737 20.6016 23.0437C21.8809 21.6191 22.2812 19.8901 22.3691 17.9381C22.4717 15.9263 22.4717 9.90179 22.3691 7.89ZM20.0352 20.0967C19.6543 21.1624 18.917 21.9834 17.9551 22.4129C16.5146 23.0491 13.0967 22.9023 11.5049 22.9023C9.91309 22.9023 6.49023 23.0437 5.05469 22.4129C4.09766 21.9888 3.36035 21.1678 2.97461 20.0967C2.40332 18.4927 2.53516 14.6866 2.53516 12.914C2.53516 11.1415 2.4082 7.32996 2.97461 5.7314C3.35547 4.66569 4.09277 3.84467 5.05469 3.41512C6.49512 2.77896 9.91309 2.92577 11.5049 2.92577C13.0967 2.92577 16.5195 2.7844 17.9551 3.41512C18.9121 3.83923 19.6494 4.66026 20.0352 5.7314C20.6064 7.33539 20.4746 11.1415 20.4746 12.914C20.4746 14.6866 20.6064 18.4981 20.0352 20.0967Z" fill="white"/>
</svg>
