<svg width="460" height="42" viewBox="0 0 460 42" fill="none" xmlns="http://www.w3.org/2000/svg">
<path d="M2.024 1.88V13H0.2V1.88H2.024ZM8.14675 5.672V10.552C8.14675 10.8827 8.22142 11.1227 8.37075 11.272C8.53075 11.4107 8.79742 11.48 9.17075 11.48H10.2908V13H8.85075C8.02942 13 7.40008 12.808 6.96275 12.424C6.52542 12.04 6.30675 11.416 6.30675 10.552V5.672H5.26675V4.184H6.30675V1.992H8.14675V4.184H10.2908V5.672H8.14675ZM20.2561 3.016C19.9255 3.016 19.6481 2.904 19.4241 2.68C19.2001 2.456 19.0881 2.17867 19.0881 1.848C19.0881 1.51733 19.2001 1.24 19.4241 1.016C19.6481 0.791999 19.9255 0.679999 20.2561 0.679999C20.5761 0.679999 20.8481 0.791999 21.0721 1.016C21.2961 1.24 21.4081 1.51733 21.4081 1.848C21.4081 2.17867 21.2961 2.456 21.0721 2.68C20.8481 2.904 20.5761 3.016 20.2561 3.016ZM21.1521 4.184V13H19.3281V4.184H21.1521ZM28.3469 13.144C27.6535 13.144 27.0295 13.0213 26.4749 12.776C25.9309 12.52 25.4989 12.1787 25.1789 11.752C24.8589 11.3147 24.6882 10.8293 24.6669 10.296H26.5549C26.5869 10.6693 26.7629 10.984 27.0829 11.24C27.4135 11.4853 27.8242 11.608 28.3149 11.608C28.8269 11.608 29.2215 11.512 29.4989 11.32C29.7869 11.1173 29.9309 10.8613 29.9309 10.552C29.9309 10.2213 29.7709 9.976 29.4509 9.816C29.1415 9.656 28.6455 9.48 27.9629 9.288C27.3015 9.10667 26.7629 8.93067 26.3469 8.76C25.9309 8.58933 25.5682 8.328 25.2589 7.976C24.9602 7.624 24.8109 7.16 24.8109 6.584C24.8109 6.11467 24.9495 5.688 25.2269 5.304C25.5042 4.90933 25.8989 4.6 26.4109 4.376C26.9335 4.152 27.5309 4.04 28.2029 4.04C29.2055 4.04 30.0109 4.296 30.6189 4.808C31.2375 5.30933 31.5682 5.99733 31.6109 6.872H29.7869C29.7549 6.47733 29.5949 6.16267 29.3069 5.928C29.0189 5.69333 28.6295 5.576 28.1389 5.576C27.6589 5.576 27.2909 5.66667 27.0349 5.848C26.7789 6.02933 26.6509 6.26933 26.6509 6.568C26.6509 6.80267 26.7362 7 26.9069 7.16C27.0775 7.32 27.2855 7.448 27.5309 7.544C27.7762 7.62933 28.1389 7.74133 28.6189 7.88C29.2589 8.05067 29.7815 8.22667 30.1869 8.408C30.6029 8.57867 30.9602 8.83467 31.2589 9.176C31.5575 9.51733 31.7122 9.97067 31.7229 10.536C31.7229 11.0373 31.5842 11.4853 31.3069 11.88C31.0295 12.2747 30.6349 12.584 30.1229 12.808C29.6215 13.032 29.0295 13.144 28.3469 13.144ZM40.442 8.552C40.442 7.66667 40.6233 6.88267 40.986 6.2C41.3593 5.51733 41.8607 4.98933 42.49 4.616C43.13 4.232 43.834 4.04 44.602 4.04C45.2953 4.04 45.898 4.17867 46.41 4.456C46.9327 4.72267 47.3487 5.05867 47.658 5.464V4.184H49.498V13H47.658V11.688C47.3487 12.104 46.9273 12.4507 46.394 12.728C45.8607 13.0053 45.2527 13.144 44.57 13.144C43.8127 13.144 43.1193 12.952 42.49 12.568C41.8607 12.1733 41.3593 11.6293 40.986 10.936C40.6233 10.232 40.442 9.43733 40.442 8.552ZM47.658 8.584C47.658 7.976 47.53 7.448 47.274 7C47.0287 6.552 46.7033 6.21067 46.298 5.976C45.8927 5.74133 45.4553 5.624 44.986 5.624C44.5167 5.624 44.0793 5.74133 43.674 5.976C43.2687 6.2 42.938 6.536 42.682 6.984C42.4367 7.42133 42.314 7.944 42.314 8.552C42.314 9.16 42.4367 9.69333 42.682 10.152C42.938 10.6107 43.2687 10.9627 43.674 11.208C44.09 11.4427 44.5273 11.56 44.986 11.56C45.4553 11.56 45.8927 11.4427 46.298 11.208C46.7033 10.9733 47.0287 10.632 47.274 10.184C47.53 9.72533 47.658 9.192 47.658 8.584ZM61.074 1.16V13H59.25V1.16H61.074ZM68.8928 13.144C68.0608 13.144 67.3088 12.9573 66.6368 12.584C65.9648 12.2 65.4368 11.6667 65.0528 10.984C64.6688 10.2907 64.4768 9.49067 64.4768 8.584C64.4768 7.688 64.6741 6.89333 65.0688 6.2C65.4634 5.50667 66.0021 4.97333 66.6848 4.6C67.3674 4.22667 68.1301 4.04 68.9728 4.04C69.8154 4.04 70.5781 4.22667 71.2608 4.6C71.9434 4.97333 72.4821 5.50667 72.8768 6.2C73.2714 6.89333 73.4688 7.688 73.4688 8.584C73.4688 9.48 73.2661 10.2747 72.8608 10.968C72.4554 11.6613 71.9008 12.2 71.1968 12.584C70.5034 12.9573 69.7354 13.144 68.8928 13.144ZM68.8928 11.56C69.3621 11.56 69.7994 11.448 70.2048 11.224C70.6208 11 70.9568 10.664 71.2128 10.216C71.4688 9.768 71.5968 9.224 71.5968 8.584C71.5968 7.944 71.4741 7.40533 71.2288 6.968C70.9834 6.52 70.6581 6.184 70.2528 5.96C69.8474 5.736 69.4101 5.624 68.9408 5.624C68.4714 5.624 68.0341 5.736 67.6288 5.96C67.2341 6.184 66.9194 6.52 66.6848 6.968C66.4501 7.40533 66.3328 7.944 66.3328 8.584C66.3328 9.53333 66.5728 10.2693 67.0528 10.792C67.5434 11.304 68.1568 11.56 68.8928 11.56ZM81.3199 4.04C82.0132 4.04 82.6319 4.184 83.1759 4.472C83.7305 4.76 84.1625 5.18667 84.4719 5.752C84.7812 6.31733 84.9359 7 84.9359 7.8V13H83.1279V8.072C83.1279 7.28267 82.9305 6.68 82.5359 6.264C82.1412 5.83733 81.6025 5.624 80.9199 5.624C80.2372 5.624 79.6932 5.83733 79.2879 6.264C78.8932 6.68 78.6959 7.28267 78.6959 8.072V13H76.8719V4.184H78.6959V5.192C78.9945 4.82933 79.3732 4.54667 79.8319 4.344C80.3012 4.14133 80.7972 4.04 81.3199 4.04ZM92.4145 4.04C93.0972 4.04 93.6998 4.17867 94.2225 4.456C94.7558 4.72267 95.1718 5.05867 95.4705 5.464V4.184H97.3105V13.144C97.3105 13.9547 97.1398 14.6747 96.7985 15.304C96.4572 15.944 95.9612 16.4453 95.3105 16.808C94.6705 17.1707 93.9025 17.352 93.0065 17.352C91.8118 17.352 90.8198 17.0693 90.0305 16.504C89.2412 15.9493 88.7932 15.192 88.6865 14.232H90.4945C90.6332 14.6907 90.9265 15.0587 91.3745 15.336C91.8332 15.624 92.3772 15.768 93.0065 15.768C93.7425 15.768 94.3345 15.544 94.7825 15.096C95.2412 14.648 95.4705 13.9973 95.4705 13.144V11.672C95.1612 12.088 94.7398 12.44 94.2065 12.728C93.6838 13.0053 93.0865 13.144 92.4145 13.144C91.6465 13.144 90.9425 12.952 90.3025 12.568C89.6732 12.1733 89.1718 11.6293 88.7985 10.936C88.4358 10.232 88.2545 9.43733 88.2545 8.552C88.2545 7.66667 88.4358 6.88267 88.7985 6.2C89.1718 5.51733 89.6732 4.98933 90.3025 4.616C90.9425 4.232 91.6465 4.04 92.4145 4.04ZM95.4705 8.584C95.4705 7.976 95.3425 7.448 95.0865 7C94.8412 6.552 94.5158 6.21067 94.1105 5.976C93.7052 5.74133 93.2678 5.624 92.7985 5.624C92.3292 5.624 91.8918 5.74133 91.4865 5.976C91.0812 6.2 90.7505 6.536 90.4945 6.984C90.2492 7.42133 90.1265 7.944 90.1265 8.552C90.1265 9.16 90.2492 9.69333 90.4945 10.152C90.7505 10.6107 91.0812 10.9627 91.4865 11.208C91.9025 11.4427 92.3398 11.56 92.7985 11.56C93.2678 11.56 93.7052 11.4427 94.1105 11.208C94.5158 10.9733 94.8412 10.632 95.0865 10.184C95.3425 9.72533 95.4705 9.192 95.4705 8.584ZM115.143 8.376C115.143 8.70667 115.121 9.00533 115.079 9.272H108.343C108.396 9.976 108.657 10.5413 109.127 10.968C109.596 11.3947 110.172 11.608 110.855 11.608C111.836 11.608 112.529 11.1973 112.935 10.376H114.903C114.636 11.1867 114.151 11.8533 113.447 12.376C112.753 12.888 111.889 13.144 110.855 13.144C110.012 13.144 109.255 12.9573 108.583 12.584C107.921 12.2 107.399 11.6667 107.015 10.984C106.641 10.2907 106.455 9.49067 106.455 8.584C106.455 7.67733 106.636 6.88267 106.999 6.2C107.372 5.50667 107.889 4.97333 108.551 4.6C109.223 4.22667 109.991 4.04 110.855 4.04C111.687 4.04 112.428 4.22133 113.079 4.584C113.729 4.94667 114.236 5.45867 114.599 6.12C114.961 6.77067 115.143 7.52267 115.143 8.376ZM113.239 7.8C113.228 7.128 112.988 6.58933 112.519 6.184C112.049 5.77867 111.468 5.576 110.775 5.576C110.145 5.576 109.607 5.77867 109.159 6.184C108.711 6.57867 108.444 7.11733 108.359 7.8H113.239ZM121.738 13.144C121.044 13.144 120.42 13.0213 119.866 12.776C119.322 12.52 118.89 12.1787 118.57 11.752C118.25 11.3147 118.079 10.8293 118.058 10.296H119.946C119.978 10.6693 120.154 10.984 120.474 11.24C120.804 11.4853 121.215 11.608 121.706 11.608C122.218 11.608 122.612 11.512 122.89 11.32C123.178 11.1173 123.322 10.8613 123.322 10.552C123.322 10.2213 123.162 9.976 122.842 9.816C122.532 9.656 122.036 9.48 121.354 9.288C120.692 9.10667 120.154 8.93067 119.738 8.76C119.322 8.58933 118.959 8.328 118.65 7.976C118.351 7.624 118.202 7.16 118.202 6.584C118.202 6.11467 118.34 5.688 118.618 5.304C118.895 4.90933 119.29 4.6 119.802 4.376C120.324 4.152 120.922 4.04 121.594 4.04C122.596 4.04 123.402 4.296 124.01 4.808C124.628 5.30933 124.959 5.99733 125.002 6.872H123.178C123.146 6.47733 122.986 6.16267 122.698 5.928C122.41 5.69333 122.02 5.576 121.53 5.576C121.05 5.576 120.682 5.66667 120.426 5.848C120.17 6.02933 120.042 6.26933 120.042 6.568C120.042 6.80267 120.127 7 120.298 7.16C120.468 7.32 120.676 7.448 120.922 7.544C121.167 7.62933 121.53 7.74133 122.01 7.88C122.65 8.05067 123.172 8.22667 123.578 8.408C123.994 8.57867 124.351 8.83467 124.65 9.176C124.948 9.51733 125.103 9.97067 125.114 10.536C125.114 11.0373 124.975 11.4853 124.698 11.88C124.42 12.2747 124.026 12.584 123.514 12.808C123.012 13.032 122.42 13.144 121.738 13.144ZM130.812 5.672V10.552C130.812 10.8827 130.887 11.1227 131.036 11.272C131.196 11.4107 131.463 11.48 131.836 11.48H132.956V13H131.516C130.695 13 130.066 12.808 129.628 12.424C129.191 12.04 128.972 11.416 128.972 10.552V5.672H127.932V4.184H128.972V1.992H130.812V4.184H132.956V5.672H130.812ZM135.63 8.552C135.63 7.66667 135.811 6.88267 136.174 6.2C136.547 5.51733 137.048 4.98933 137.678 4.616C138.318 4.232 139.022 4.04 139.79 4.04C140.483 4.04 141.086 4.17867 141.598 4.456C142.12 4.72267 142.536 5.05867 142.846 5.464V4.184H144.686V13H142.846V11.688C142.536 12.104 142.115 12.4507 141.582 12.728C141.048 13.0053 140.44 13.144 139.758 13.144C139 13.144 138.307 12.952 137.678 12.568C137.048 12.1733 136.547 11.6293 136.174 10.936C135.811 10.232 135.63 9.43733 135.63 8.552ZM142.846 8.584C142.846 7.976 142.718 7.448 142.462 7C142.216 6.552 141.891 6.21067 141.486 5.976C141.08 5.74133 140.643 5.624 140.174 5.624C139.704 5.624 139.267 5.74133 138.862 5.976C138.456 6.2 138.126 6.536 137.87 6.984C137.624 7.42133 137.502 7.944 137.502 8.552C137.502 9.16 137.624 9.69333 137.87 10.152C138.126 10.6107 138.456 10.9627 138.862 11.208C139.278 11.4427 139.715 11.56 140.174 11.56C140.643 11.56 141.08 11.4427 141.486 11.208C141.891 10.9733 142.216 10.632 142.462 10.184C142.718 9.72533 142.846 9.192 142.846 8.584ZM150.505 5.496C150.815 5.06933 151.236 4.72267 151.769 4.456C152.313 4.17867 152.916 4.04 153.577 4.04C154.356 4.04 155.06 4.22667 155.689 4.6C156.319 4.97333 156.815 5.50667 157.177 6.2C157.54 6.88267 157.721 7.66667 157.721 8.552C157.721 9.43733 157.54 10.232 157.177 10.936C156.815 11.6293 156.313 12.1733 155.673 12.568C155.044 12.952 154.345 13.144 153.577 13.144C152.895 13.144 152.287 13.0107 151.753 12.744C151.231 12.4773 150.815 12.136 150.505 11.72V13H148.681V1.16H150.505V5.496ZM155.865 8.552C155.865 7.944 155.737 7.42133 155.481 6.984C155.236 6.536 154.905 6.2 154.489 5.976C154.084 5.74133 153.647 5.624 153.177 5.624C152.719 5.624 152.281 5.74133 151.865 5.976C151.46 6.21067 151.129 6.552 150.873 7C150.628 7.448 150.505 7.976 150.505 8.584C150.505 9.192 150.628 9.72533 150.873 10.184C151.129 10.632 151.46 10.9733 151.865 11.208C152.281 11.4427 152.719 11.56 153.177 11.56C153.647 11.56 154.084 11.4427 154.489 11.208C154.905 10.9627 155.236 10.6107 155.481 10.152C155.737 9.69333 155.865 9.16 155.865 8.552ZM162.949 1.16V13H161.125V1.16H162.949ZM167.872 3.016C167.541 3.016 167.264 2.904 167.04 2.68C166.816 2.456 166.704 2.17867 166.704 1.848C166.704 1.51733 166.816 1.24 167.04 1.016C167.264 0.791999 167.541 0.679999 167.872 0.679999C168.192 0.679999 168.464 0.791999 168.688 1.016C168.912 1.24 169.024 1.51733 169.024 1.848C169.024 2.17867 168.912 2.456 168.688 2.68C168.464 2.904 168.192 3.016 167.872 3.016ZM168.768 4.184V13H166.944V4.184H168.768ZM175.963 13.144C175.269 13.144 174.645 13.0213 174.091 12.776C173.547 12.52 173.115 12.1787 172.795 11.752C172.475 11.3147 172.304 10.8293 172.283 10.296H174.171C174.203 10.6693 174.379 10.984 174.699 11.24C175.029 11.4853 175.44 11.608 175.931 11.608C176.443 11.608 176.837 11.512 177.115 11.32C177.403 11.1173 177.547 10.8613 177.547 10.552C177.547 10.2213 177.387 9.976 177.067 9.816C176.757 9.656 176.261 9.48 175.579 9.288C174.917 9.10667 174.379 8.93067 173.963 8.76C173.547 8.58933 173.184 8.328 172.875 7.976C172.576 7.624 172.427 7.16 172.427 6.584C172.427 6.11467 172.565 5.688 172.843 5.304C173.12 4.90933 173.515 4.6 174.027 4.376C174.549 4.152 175.147 4.04 175.819 4.04C176.821 4.04 177.627 4.296 178.235 4.808C178.853 5.30933 179.184 5.99733 179.227 6.872H177.403C177.371 6.47733 177.211 6.16267 176.923 5.928C176.635 5.69333 176.245 5.576 175.755 5.576C175.275 5.576 174.907 5.66667 174.651 5.848C174.395 6.02933 174.267 6.26933 174.267 6.568C174.267 6.80267 174.352 7 174.523 7.16C174.693 7.32 174.901 7.448 175.147 7.544C175.392 7.62933 175.755 7.74133 176.235 7.88C176.875 8.05067 177.397 8.22667 177.803 8.408C178.219 8.57867 178.576 8.83467 178.875 9.176C179.173 9.51733 179.328 9.97067 179.339 10.536C179.339 11.0373 179.2 11.4853 178.923 11.88C178.645 12.2747 178.251 12.584 177.739 12.808C177.237 13.032 176.645 13.144 175.963 13.144ZM187.469 4.04C188.141 4.04 188.739 4.184 189.261 4.472C189.795 4.76 190.211 5.18667 190.509 5.752C190.819 6.31733 190.973 7 190.973 7.8V13H189.165V8.072C189.165 7.28267 188.968 6.68 188.573 6.264C188.179 5.83733 187.64 5.624 186.957 5.624C186.275 5.624 185.731 5.83733 185.325 6.264C184.931 6.68 184.733 7.28267 184.733 8.072V13H182.909V1.16H184.733V5.208C185.043 4.83467 185.432 4.54667 185.901 4.344C186.381 4.14133 186.904 4.04 187.469 4.04ZM202.98 8.376C202.98 8.70667 202.959 9.00533 202.916 9.272H196.18C196.233 9.976 196.495 10.5413 196.964 10.968C197.433 11.3947 198.009 11.608 198.692 11.608C199.673 11.608 200.367 11.1973 200.772 10.376H202.74C202.473 11.1867 201.988 11.8533 201.284 12.376C200.591 12.888 199.727 13.144 198.692 13.144C197.849 13.144 197.092 12.9573 196.42 12.584C195.759 12.2 195.236 11.6667 194.852 10.984C194.479 10.2907 194.292 9.49067 194.292 8.584C194.292 7.67733 194.473 6.88267 194.836 6.2C195.209 5.50667 195.727 4.97333 196.388 4.6C197.06 4.22667 197.828 4.04 198.692 4.04C199.524 4.04 200.265 4.22133 200.916 4.584C201.567 4.94667 202.073 5.45867 202.436 6.12C202.799 6.77067 202.98 7.52267 202.98 8.376ZM201.076 7.8C201.065 7.128 200.825 6.58933 200.356 6.184C199.887 5.77867 199.305 5.576 198.612 5.576C197.983 5.576 197.444 5.77867 196.996 6.184C196.548 6.57867 196.281 7.11733 196.196 7.8H201.076ZM205.767 8.552C205.767 7.66667 205.948 6.88267 206.311 6.2C206.684 5.51733 207.186 4.98933 207.815 4.616C208.455 4.232 209.164 4.04 209.943 4.04C210.519 4.04 211.084 4.168 211.639 4.424C212.204 4.66933 212.652 5 212.983 5.416V1.16H214.823V13H212.983V11.672C212.684 12.0987 212.268 12.4507 211.735 12.728C211.212 13.0053 210.61 13.144 209.927 13.144C209.159 13.144 208.455 12.952 207.815 12.568C207.186 12.1733 206.684 11.6293 206.311 10.936C205.948 10.232 205.767 9.43733 205.767 8.552ZM212.983 8.584C212.983 7.976 212.855 7.448 212.599 7C212.354 6.552 212.028 6.21067 211.623 5.976C211.218 5.74133 210.78 5.624 210.311 5.624C209.842 5.624 209.404 5.74133 208.999 5.976C208.594 6.2 208.263 6.536 208.007 6.984C207.762 7.42133 207.639 7.944 207.639 8.552C207.639 9.16 207.762 9.69333 208.007 10.152C208.263 10.6107 208.594 10.9627 208.999 11.208C209.415 11.4427 209.852 11.56 210.311 11.56C210.78 11.56 211.218 11.4427 211.623 11.208C212.028 10.9733 212.354 10.632 212.599 10.184C212.855 9.72533 212.983 9.192 212.983 8.584ZM228.271 5.672H226.639V13H224.799V5.672H223.759V4.184H224.799V3.56C224.799 2.54667 225.066 1.81067 225.599 1.352C226.143 0.882666 226.991 0.648 228.143 0.648V2.168C227.588 2.168 227.199 2.27467 226.975 2.488C226.751 2.69067 226.639 3.048 226.639 3.56V4.184H228.271V5.672ZM230.88 8.552C230.88 7.66667 231.061 6.88267 231.424 6.2C231.797 5.51733 232.298 4.98933 232.928 4.616C233.568 4.232 234.272 4.04 235.04 4.04C235.733 4.04 236.336 4.17867 236.848 4.456C237.37 4.72267 237.786 5.05867 238.096 5.464V4.184H239.936V13H238.096V11.688C237.786 12.104 237.365 12.4507 236.832 12.728C236.298 13.0053 235.69 13.144 235.008 13.144C234.25 13.144 233.557 12.952 232.928 12.568C232.298 12.1733 231.797 11.6293 231.424 10.936C231.061 10.232 230.88 9.43733 230.88 8.552ZM238.096 8.584C238.096 7.976 237.968 7.448 237.712 7C237.466 6.552 237.141 6.21067 236.736 5.976C236.33 5.74133 235.893 5.624 235.424 5.624C234.954 5.624 234.517 5.74133 234.112 5.976C233.706 6.2 233.376 6.536 233.12 6.984C232.874 7.42133 232.752 7.944 232.752 8.552C232.752 9.16 232.874 9.69333 233.12 10.152C233.376 10.6107 233.706 10.9627 234.112 11.208C234.528 11.4427 234.965 11.56 235.424 11.56C235.893 11.56 236.33 11.4427 236.736 11.208C237.141 10.9733 237.466 10.632 237.712 10.184C237.968 9.72533 238.096 9.192 238.096 8.584ZM243.323 8.584C243.323 7.67733 243.505 6.88267 243.867 6.2C244.241 5.50667 244.753 4.97333 245.403 4.6C246.054 4.22667 246.801 4.04 247.643 4.04C248.71 4.04 249.59 4.296 250.283 4.808C250.987 5.30933 251.462 6.02933 251.707 6.968H249.739C249.579 6.53067 249.323 6.18933 248.971 5.944C248.619 5.69867 248.177 5.576 247.643 5.576C246.897 5.576 246.299 5.84267 245.851 6.376C245.414 6.89867 245.195 7.63467 245.195 8.584C245.195 9.53333 245.414 10.2747 245.851 10.808C246.299 11.3413 246.897 11.608 247.643 11.608C248.699 11.608 249.398 11.144 249.739 10.216H251.707C251.451 11.112 250.971 11.8267 250.267 12.36C249.563 12.8827 248.689 13.144 247.643 13.144C246.801 13.144 246.054 12.9573 245.403 12.584C244.753 12.2 244.241 11.6667 243.867 10.984C243.505 10.2907 243.323 9.49067 243.323 8.584ZM257.253 5.672V10.552C257.253 10.8827 257.328 11.1227 257.477 11.272C257.637 11.4107 257.904 11.48 258.277 11.48H259.397V13H257.957C257.136 13 256.506 12.808 256.069 12.424C255.632 12.04 255.413 11.416 255.413 10.552V5.672H254.373V4.184H255.413V1.992H257.253V4.184H259.397V5.672H257.253ZM270.562 5.672V10.552C270.562 10.8827 270.637 11.1227 270.786 11.272C270.946 11.4107 271.213 11.48 271.586 11.48H272.706V13H271.266C270.445 13 269.816 12.808 269.378 12.424C268.941 12.04 268.722 11.416 268.722 10.552V5.672H267.682V4.184H268.722V1.992H270.562V4.184H272.706V5.672H270.562ZM280.548 4.04C281.22 4.04 281.817 4.184 282.34 4.472C282.873 4.76 283.289 5.18667 283.588 5.752C283.897 6.31733 284.052 7 284.052 7.8V13H282.244V8.072C282.244 7.28267 282.046 6.68 281.652 6.264C281.257 5.83733 280.718 5.624 280.036 5.624C279.353 5.624 278.809 5.83733 278.404 6.264C278.009 6.68 277.812 7.28267 277.812 8.072V13H275.988V1.16H277.812V5.208C278.121 4.83467 278.51 4.54667 278.98 4.344C279.46 4.14133 279.982 4.04 280.548 4.04ZM287.37 8.552C287.37 7.66667 287.551 6.88267 287.914 6.2C288.287 5.51733 288.789 4.98933 289.418 4.616C290.058 4.232 290.762 4.04 291.53 4.04C292.223 4.04 292.826 4.17867 293.338 4.456C293.861 4.72267 294.277 5.05867 294.586 5.464V4.184H296.426V13H294.586V11.688C294.277 12.104 293.855 12.4507 293.322 12.728C292.789 13.0053 292.181 13.144 291.498 13.144C290.741 13.144 290.047 12.952 289.418 12.568C288.789 12.1733 288.287 11.6293 287.914 10.936C287.551 10.232 287.37 9.43733 287.37 8.552ZM294.586 8.584C294.586 7.976 294.458 7.448 294.202 7C293.957 6.552 293.631 6.21067 293.226 5.976C292.821 5.74133 292.383 5.624 291.914 5.624C291.445 5.624 291.007 5.74133 290.602 5.976C290.197 6.2 289.866 6.536 289.61 6.984C289.365 7.42133 289.242 7.944 289.242 8.552C289.242 9.16 289.365 9.69333 289.61 10.152C289.866 10.6107 290.197 10.9627 290.602 11.208C291.018 11.4427 291.455 11.56 291.914 11.56C292.383 11.56 292.821 11.4427 293.226 11.208C293.631 10.9733 293.957 10.632 294.202 10.184C294.458 9.72533 294.586 9.192 294.586 8.584ZM302.55 5.672V10.552C302.55 10.8827 302.625 11.1227 302.774 11.272C302.934 11.4107 303.201 11.48 303.574 11.48H304.694V13H303.254C302.433 13 301.803 12.808 301.366 12.424C300.929 12.04 300.71 11.416 300.71 10.552V5.672H299.67V4.184H300.71V1.992H302.55V4.184H304.694V5.672H302.55ZM313.123 8.552C313.123 7.66667 313.305 6.88267 313.667 6.2C314.041 5.51733 314.542 4.98933 315.171 4.616C315.811 4.232 316.515 4.04 317.283 4.04C317.977 4.04 318.579 4.17867 319.091 4.456C319.614 4.72267 320.03 5.05867 320.339 5.464V4.184H322.179V13H320.339V11.688C320.03 12.104 319.609 12.4507 319.075 12.728C318.542 13.0053 317.934 13.144 317.251 13.144C316.494 13.144 315.801 12.952 315.171 12.568C314.542 12.1733 314.041 11.6293 313.667 10.936C313.305 10.232 313.123 9.43733 313.123 8.552ZM320.339 8.584C320.339 7.976 320.211 7.448 319.955 7C319.71 6.552 319.385 6.21067 318.979 5.976C318.574 5.74133 318.137 5.624 317.667 5.624C317.198 5.624 316.761 5.74133 316.355 5.976C315.95 6.2 315.619 6.536 315.363 6.984C315.118 7.42133 314.995 7.944 314.995 8.552C314.995 9.16 315.118 9.69333 315.363 10.152C315.619 10.6107 315.95 10.9627 316.355 11.208C316.771 11.4427 317.209 11.56 317.667 11.56C318.137 11.56 318.574 11.4427 318.979 11.208C319.385 10.9733 319.71 10.632 319.955 10.184C320.211 9.72533 320.339 9.192 320.339 8.584ZM333.755 5.464C334.022 5.016 334.374 4.66933 334.811 4.424C335.259 4.168 335.787 4.04 336.395 4.04V5.928H335.931C335.217 5.928 334.673 6.10933 334.299 6.472C333.937 6.83467 333.755 7.464 333.755 8.36V13H331.931V4.184H333.755V5.464ZM347.752 8.376C347.752 8.70667 347.731 9.00533 347.688 9.272H340.952C341.005 9.976 341.267 10.5413 341.736 10.968C342.205 11.3947 342.781 11.608 343.464 11.608C344.445 11.608 345.139 11.1973 345.544 10.376H347.512C347.245 11.1867 346.76 11.8533 346.056 12.376C345.363 12.888 344.499 13.144 343.464 13.144C342.621 13.144 341.864 12.9573 341.192 12.584C340.531 12.2 340.008 11.6667 339.624 10.984C339.251 10.2907 339.064 9.49067 339.064 8.584C339.064 7.67733 339.245 6.88267 339.608 6.2C339.981 5.50667 340.499 4.97333 341.16 4.6C341.832 4.22667 342.6 4.04 343.464 4.04C344.296 4.04 345.037 4.22133 345.688 4.584C346.339 4.94667 346.845 5.45867 347.208 6.12C347.571 6.77067 347.752 7.52267 347.752 8.376ZM345.848 7.8C345.837 7.128 345.597 6.58933 345.128 6.184C344.659 5.77867 344.077 5.576 343.384 5.576C342.755 5.576 342.216 5.77867 341.768 6.184C341.32 6.57867 341.053 7.11733 340.968 7.8H345.848ZM350.539 8.552C350.539 7.66667 350.72 6.88267 351.083 6.2C351.456 5.51733 351.958 4.98933 352.587 4.616C353.227 4.232 353.931 4.04 354.699 4.04C355.392 4.04 355.995 4.17867 356.507 4.456C357.03 4.72267 357.446 5.05867 357.755 5.464V4.184H359.595V13H357.755V11.688C357.446 12.104 357.024 12.4507 356.491 12.728C355.958 13.0053 355.35 13.144 354.667 13.144C353.91 13.144 353.216 12.952 352.587 12.568C351.958 12.1733 351.456 11.6293 351.083 10.936C350.72 10.232 350.539 9.43733 350.539 8.552ZM357.755 8.584C357.755 7.976 357.627 7.448 357.371 7C357.126 6.552 356.8 6.21067 356.395 5.976C355.99 5.74133 355.552 5.624 355.083 5.624C354.614 5.624 354.176 5.74133 353.771 5.976C353.366 6.2 353.035 6.536 352.779 6.984C352.534 7.42133 352.411 7.944 352.411 8.552C352.411 9.16 352.534 9.69333 352.779 10.152C353.035 10.6107 353.366 10.9627 353.771 11.208C354.187 11.4427 354.624 11.56 355.083 11.56C355.552 11.56 355.99 11.4427 356.395 11.208C356.8 10.9733 357.126 10.632 357.371 10.184C357.627 9.72533 357.755 9.192 357.755 8.584ZM362.983 8.552C362.983 7.66667 363.164 6.88267 363.527 6.2C363.9 5.51733 364.401 4.98933 365.031 4.616C365.671 4.232 366.38 4.04 367.159 4.04C367.735 4.04 368.3 4.168 368.855 4.424C369.42 4.66933 369.868 5 370.199 5.416V1.16H372.039V13H370.199V11.672C369.9 12.0987 369.484 12.4507 368.951 12.728C368.428 13.0053 367.825 13.144 367.143 13.144C366.375 13.144 365.671 12.952 365.031 12.568C364.401 12.1733 363.9 11.6293 363.527 10.936C363.164 10.232 362.983 9.43733 362.983 8.552ZM370.199 8.584C370.199 7.976 370.071 7.448 369.815 7C369.569 6.552 369.244 6.21067 368.839 5.976C368.433 5.74133 367.996 5.624 367.527 5.624C367.057 5.624 366.62 5.74133 366.215 5.976C365.809 6.2 365.479 6.536 365.223 6.984C364.977 7.42133 364.855 7.944 364.855 8.552C364.855 9.16 364.977 9.69333 365.223 10.152C365.479 10.6107 365.809 10.9627 366.215 11.208C366.631 11.4427 367.068 11.56 367.527 11.56C367.996 11.56 368.433 11.4427 368.839 11.208C369.244 10.9733 369.569 10.632 369.815 10.184C370.071 9.72533 370.199 9.192 370.199 8.584ZM384.114 8.376C384.114 8.70667 384.093 9.00533 384.05 9.272H377.314C377.368 9.976 377.629 10.5413 378.098 10.968C378.568 11.3947 379.144 11.608 379.826 11.608C380.808 11.608 381.501 11.1973 381.906 10.376H383.874C383.608 11.1867 383.122 11.8533 382.418 12.376C381.725 12.888 380.861 13.144 379.826 13.144C378.984 13.144 378.226 12.9573 377.554 12.584C376.893 12.2 376.37 11.6667 375.986 10.984C375.613 10.2907 375.426 9.49067 375.426 8.584C375.426 7.67733 375.608 6.88267 375.97 6.2C376.344 5.50667 376.861 4.97333 377.522 4.6C378.194 4.22667 378.962 4.04 379.826 4.04C380.658 4.04 381.4 4.22133 382.05 4.584C382.701 4.94667 383.208 5.45867 383.57 6.12C383.933 6.77067 384.114 7.52267 384.114 8.376ZM382.21 7.8C382.2 7.128 381.96 6.58933 381.49 6.184C381.021 5.77867 380.44 5.576 379.746 5.576C379.117 5.576 378.578 5.77867 378.13 6.184C377.682 6.57867 377.416 7.11733 377.33 7.8H382.21ZM389.333 5.464C389.6 5.016 389.952 4.66933 390.389 4.424C390.837 4.168 391.365 4.04 391.973 4.04V5.928H391.509C390.795 5.928 390.251 6.10933 389.877 6.472C389.515 6.83467 389.333 7.464 389.333 8.36V13H387.509V4.184H389.333V5.464ZM412.846 4.184L410.11 13H408.19L406.414 6.488L404.638 13H402.718L399.966 4.184H401.822L403.662 11.272L405.534 4.184H407.438L409.23 11.24L411.054 4.184H412.846ZM416.737 3.016C416.407 3.016 416.129 2.904 415.905 2.68C415.681 2.456 415.569 2.17867 415.569 1.848C415.569 1.51733 415.681 1.24 415.905 1.016C416.129 0.791999 416.407 0.679999 416.737 0.679999C417.057 0.679999 417.329 0.791999 417.553 1.016C417.777 1.24 417.889 1.51733 417.889 1.848C417.889 2.17867 417.777 2.456 417.553 2.68C417.329 2.904 417.057 3.016 416.737 3.016ZM417.633 4.184V13H415.809V4.184H417.633ZM423.452 1.16V13H421.628V1.16H423.452ZM429.271 1.16V13H427.447V1.16H429.271ZM440.846 5.496C441.155 5.06933 441.577 4.72267 442.11 4.456C442.654 4.17867 443.257 4.04 443.918 4.04C444.697 4.04 445.401 4.22667 446.03 4.6C446.659 4.97333 447.155 5.50667 447.518 6.2C447.881 6.88267 448.062 7.66667 448.062 8.552C448.062 9.43733 447.881 10.232 447.518 10.936C447.155 11.6293 446.654 12.1733 446.014 12.568C445.385 12.952 444.686 13.144 443.918 13.144C443.235 13.144 442.627 13.0107 442.094 12.744C441.571 12.4773 441.155 12.136 440.846 11.72V13H439.022V1.16H440.846V5.496ZM446.206 8.552C446.206 7.944 446.078 7.42133 445.822 6.984C445.577 6.536 445.246 6.2 444.83 5.976C444.425 5.74133 443.987 5.624 443.518 5.624C443.059 5.624 442.622 5.74133 442.206 5.976C441.801 6.21067 441.47 6.552 441.214 7C440.969 7.448 440.846 7.976 440.846 8.584C440.846 9.192 440.969 9.72533 441.214 10.184C441.47 10.632 441.801 10.9733 442.206 11.208C442.622 11.4427 443.059 11.56 443.518 11.56C443.987 11.56 444.425 11.4427 444.83 11.208C445.246 10.9627 445.577 10.6107 445.822 10.152C446.078 9.69333 446.206 9.16 446.206 8.552ZM459.546 8.376C459.546 8.70667 459.524 9.00533 459.482 9.272H452.746C452.799 9.976 453.06 10.5413 453.53 10.968C453.999 11.3947 454.575 11.608 455.258 11.608C456.239 11.608 456.932 11.1973 457.338 10.376H459.306C459.039 11.1867 458.554 11.8533 457.85 12.376C457.156 12.888 456.292 13.144 455.258 13.144C454.415 13.144 453.658 12.9573 452.986 12.584C452.324 12.2 451.802 11.6667 451.418 10.984C451.044 10.2907 450.858 9.49067 450.858 8.584C450.858 7.67733 451.039 6.88267 451.402 6.2C451.775 5.50667 452.292 4.97333 452.954 4.6C453.626 4.22667 454.394 4.04 455.258 4.04C456.09 4.04 456.831 4.22133 457.482 4.584C458.132 4.94667 458.639 5.45867 459.002 6.12C459.364 6.77067 459.546 7.52267 459.546 8.376ZM457.642 7.8C457.631 7.128 457.391 6.58933 456.922 6.184C456.452 5.77867 455.871 5.576 455.178 5.576C454.548 5.576 454.01 5.77867 453.562 6.184C453.114 6.57867 452.847 7.11733 452.762 7.8H457.642ZM2.024 29.496C2.33333 29.0693 2.75467 28.7227 3.288 28.456C3.832 28.1787 4.43467 28.04 5.096 28.04C5.87467 28.04 6.57867 28.2267 7.208 28.6C7.83733 28.9733 8.33333 29.5067 8.696 30.2C9.05867 30.8827 9.24 31.6667 9.24 32.552C9.24 33.4373 9.05867 34.232 8.696 34.936C8.33333 35.6293 7.832 36.1733 7.192 36.568C6.56267 36.952 5.864 37.144 5.096 37.144C4.41333 37.144 3.80533 37.0107 3.272 36.744C2.74933 36.4773 2.33333 36.136 2.024 35.72V37H0.2V25.16H2.024V29.496ZM7.384 32.552C7.384 31.944 7.256 31.4213 7 30.984C6.75467 30.536 6.424 30.2 6.008 29.976C5.60267 29.7413 5.16533 29.624 4.696 29.624C4.23733 29.624 3.8 29.7413 3.384 29.976C2.97867 30.2107 2.648 30.552 2.392 31C2.14667 31.448 2.024 31.976 2.024 32.584C2.024 33.192 2.14667 33.7253 2.392 34.184C2.648 34.632 2.97867 34.9733 3.384 35.208C3.8 35.4427 4.23733 35.56 4.696 35.56C5.16533 35.56 5.60267 35.4427 6.008 35.208C6.424 34.9627 6.75467 34.6107 7 34.152C7.256 33.6933 7.384 33.16 7.384 32.552ZM20.5798 28.184L15.1718 41.144H13.2838L15.0758 36.856L11.6038 28.184H13.6358L16.1158 34.904L18.6918 28.184H20.5798ZM31.4405 29.672V34.552C31.4405 34.8827 31.5152 35.1227 31.6645 35.272C31.8245 35.4107 32.0912 35.48 32.4645 35.48H33.5845V37H32.1445C31.3232 37 30.6938 36.808 30.2565 36.424C29.8192 36.04 29.6005 35.416 29.6005 34.552V29.672H28.5605V28.184H29.6005V25.992H31.4405V28.184H33.5845V29.672H31.4405ZM41.4256 28.04C42.0976 28.04 42.695 28.184 43.2176 28.472C43.751 28.76 44.167 29.1867 44.4656 29.752C44.775 30.3173 44.9296 31 44.9296 31.8V37H43.1216V32.072C43.1216 31.2827 42.9243 30.68 42.5296 30.264C42.135 29.8373 41.5963 29.624 40.9136 29.624C40.231 29.624 39.687 29.8373 39.2816 30.264C38.887 30.68 38.6896 31.2827 38.6896 32.072V37H36.8656V25.16H38.6896V29.208C38.999 28.8347 39.3883 28.5467 39.8576 28.344C40.3376 28.1413 40.8603 28.04 41.4256 28.04ZM56.9363 32.376C56.9363 32.7067 56.9149 33.0053 56.8723 33.272H50.1363C50.1896 33.976 50.4509 34.5413 50.9203 34.968C51.3896 35.3947 51.9656 35.608 52.6483 35.608C53.6296 35.608 54.3229 35.1973 54.7283 34.376H56.6962C56.4296 35.1867 55.9443 35.8533 55.2403 36.376C54.5469 36.888 53.6829 37.144 52.6483 37.144C51.8056 37.144 51.0483 36.9573 50.3763 36.584C49.7149 36.2 49.1923 35.6667 48.8083 34.984C48.4349 34.2907 48.2483 33.4907 48.2483 32.584C48.2483 31.6773 48.4296 30.8827 48.7923 30.2C49.1656 29.5067 49.6829 28.9733 50.3443 28.6C51.0163 28.2267 51.7843 28.04 52.6483 28.04C53.4803 28.04 54.2216 28.2213 54.8723 28.584C55.5229 28.9467 56.0296 29.4587 56.3923 30.12C56.7549 30.7707 56.9363 31.5227 56.9363 32.376ZM55.0323 31.8C55.0216 31.128 54.7816 30.5893 54.3123 30.184C53.8429 29.7787 53.2616 29.576 52.5683 29.576C51.9389 29.576 51.4003 29.7787 50.9523 30.184C50.5043 30.5787 50.2376 31.1173 50.1523 31.8H55.0323ZM67.9115 29.464C68.1782 29.016 68.5302 28.6693 68.9675 28.424C69.4155 28.168 69.9435 28.04 70.5515 28.04V29.928H70.0875C69.3728 29.928 68.8288 30.1093 68.4555 30.472C68.0928 30.8347 67.9115 31.464 67.9115 32.36V37H66.0875V28.184H67.9115V29.464ZM81.9081 32.376C81.9081 32.7067 81.8868 33.0053 81.8441 33.272H75.1081C75.1615 33.976 75.4228 34.5413 75.8921 34.968C76.3615 35.3947 76.9375 35.608 77.6201 35.608C78.6015 35.608 79.2948 35.1973 79.7001 34.376H81.6681C81.4015 35.1867 80.9161 35.8533 80.2121 36.376C79.5188 36.888 78.6548 37.144 77.6201 37.144C76.7775 37.144 76.0201 36.9573 75.3481 36.584C74.6868 36.2 74.1641 35.6667 73.7801 34.984C73.4068 34.2907 73.2201 33.4907 73.2201 32.584C73.2201 31.6773 73.4015 30.8827 73.7641 30.2C74.1375 29.5067 74.6548 28.9733 75.3161 28.6C75.9881 28.2267 76.7561 28.04 77.6201 28.04C78.4521 28.04 79.1935 28.2213 79.8441 28.584C80.4948 28.9467 81.0015 29.4587 81.3641 30.12C81.7268 30.7707 81.9081 31.5227 81.9081 32.376ZM80.0041 31.8C79.9935 31.128 79.7535 30.5893 79.2841 30.184C78.8148 29.7787 78.2335 29.576 77.5401 29.576C76.9108 29.576 76.3721 29.7787 75.9241 30.184C75.4761 30.5787 75.2095 31.1173 75.1241 31.8H80.0041ZM84.6951 32.552C84.6951 31.6667 84.8765 30.8827 85.2391 30.2C85.6125 29.5173 86.1138 28.9893 86.7431 28.616C87.3831 28.232 88.0871 28.04 88.8551 28.04C89.5485 28.04 90.1511 28.1787 90.6631 28.456C91.1858 28.7227 91.6018 29.0587 91.9111 29.464V28.184H93.7511V37H91.9111V35.688C91.6018 36.104 91.1805 36.4507 90.6471 36.728C90.1138 37.0053 89.5058 37.144 88.8231 37.144C88.0658 37.144 87.3725 36.952 86.7431 36.568C86.1138 36.1733 85.6125 35.6293 85.2391 34.936C84.8765 34.232 84.6951 33.4373 84.6951 32.552ZM91.9111 32.584C91.9111 31.976 91.7831 31.448 91.5271 31C91.2818 30.552 90.9565 30.2107 90.5511 29.976C90.1458 29.7413 89.7085 29.624 89.2391 29.624C88.7698 29.624 88.3325 29.7413 87.9271 29.976C87.5218 30.2 87.1911 30.536 86.9351 30.984C86.6898 31.4213 86.5671 31.944 86.5671 32.552C86.5671 33.16 86.6898 33.6933 86.9351 34.152C87.1911 34.6107 87.5218 34.9627 87.9271 35.208C88.3431 35.4427 88.7805 35.56 89.2391 35.56C89.7085 35.56 90.1458 35.4427 90.5511 35.208C90.9565 34.9733 91.2818 34.632 91.5271 34.184C91.7831 33.7253 91.9111 33.192 91.9111 32.584ZM97.1389 32.552C97.1389 31.6667 97.3202 30.8827 97.6829 30.2C98.0562 29.5173 98.5575 28.9893 99.1869 28.616C99.8269 28.232 100.536 28.04 101.315 28.04C101.891 28.04 102.456 28.168 103.011 28.424C103.576 28.6693 104.024 29 104.355 29.416V25.16H106.195V37H104.355V35.672C104.056 36.0987 103.64 36.4507 103.107 36.728C102.584 37.0053 101.982 37.144 101.299 37.144C100.531 37.144 99.8269 36.952 99.1869 36.568C98.5575 36.1733 98.0562 35.6293 97.6829 34.936C97.3202 34.232 97.1389 33.4373 97.1389 32.552ZM104.355 32.584C104.355 31.976 104.227 31.448 103.971 31C103.726 30.552 103.4 30.2107 102.995 29.976C102.59 29.7413 102.152 29.624 101.683 29.624C101.214 29.624 100.776 29.7413 100.371 29.976C99.9655 30.2 99.6349 30.536 99.3789 30.984C99.1335 31.4213 99.0109 31.944 99.0109 32.552C99.0109 33.16 99.1335 33.6933 99.3789 34.152C99.6349 34.6107 99.9655 34.9627 100.371 35.208C100.787 35.4427 101.224 35.56 101.683 35.56C102.152 35.56 102.59 35.4427 102.995 35.208C103.4 34.9733 103.726 34.632 103.971 34.184C104.227 33.7253 104.355 33.192 104.355 32.584ZM109.583 32.552C109.583 31.6667 109.764 30.8827 110.127 30.2C110.5 29.5173 111.001 28.9893 111.631 28.616C112.271 28.232 112.975 28.04 113.743 28.04C114.436 28.04 115.039 28.1787 115.551 28.456C116.073 28.7227 116.489 29.0587 116.799 29.464V28.184H118.639V37H116.799V35.688C116.489 36.104 116.068 36.4507 115.535 36.728C115.001 37.0053 114.393 37.144 113.711 37.144C112.953 37.144 112.26 36.952 111.631 36.568C111.001 36.1733 110.5 35.6293 110.127 34.936C109.764 34.232 109.583 33.4373 109.583 32.552ZM116.799 32.584C116.799 31.976 116.671 31.448 116.415 31C116.169 30.552 115.844 30.2107 115.439 29.976C115.033 29.7413 114.596 29.624 114.127 29.624C113.657 29.624 113.22 29.7413 112.815 29.976C112.409 30.2 112.079 30.536 111.823 30.984C111.577 31.4213 111.455 31.944 111.455 32.552C111.455 33.16 111.577 33.6933 111.823 34.152C112.079 34.6107 112.409 34.9627 112.815 35.208C113.231 35.4427 113.668 35.56 114.127 35.56C114.596 35.56 115.033 35.4427 115.439 35.208C115.844 34.9733 116.169 34.632 116.415 34.184C116.671 33.7253 116.799 33.192 116.799 32.584ZM124.458 29.496C124.768 29.0693 125.189 28.7227 125.722 28.456C126.266 28.1787 126.869 28.04 127.53 28.04C128.309 28.04 129.013 28.2267 129.642 28.6C130.272 28.9733 130.768 29.5067 131.13 30.2C131.493 30.8827 131.674 31.6667 131.674 32.552C131.674 33.4373 131.493 34.232 131.13 34.936C130.768 35.6293 130.266 36.1733 129.626 36.568C128.997 36.952 128.298 37.144 127.53 37.144C126.848 37.144 126.24 37.0107 125.706 36.744C125.184 36.4773 124.768 36.136 124.458 35.72V37H122.634V25.16H124.458V29.496ZM129.818 32.552C129.818 31.944 129.69 31.4213 129.434 30.984C129.189 30.536 128.858 30.2 128.442 29.976C128.037 29.7413 127.6 29.624 127.13 29.624C126.672 29.624 126.234 29.7413 125.818 29.976C125.413 30.2107 125.082 30.552 124.826 31C124.581 31.448 124.458 31.976 124.458 32.584C124.458 33.192 124.581 33.7253 124.826 34.184C125.082 34.632 125.413 34.9733 125.818 35.208C126.234 35.4427 126.672 35.56 127.13 35.56C127.6 35.56 128.037 35.4427 128.442 35.208C128.858 34.9627 129.189 34.6107 129.434 34.152C129.69 33.6933 129.818 33.16 129.818 32.552ZM136.902 25.16V37H135.078V25.16H136.902ZM148.977 32.376C148.977 32.7067 148.956 33.0053 148.913 33.272H142.177C142.23 33.976 142.492 34.5413 142.961 34.968C143.43 35.3947 144.006 35.608 144.689 35.608C145.67 35.608 146.364 35.1973 146.769 34.376H148.737C148.47 35.1867 147.985 35.8533 147.281 36.376C146.588 36.888 145.724 37.144 144.689 37.144C143.846 37.144 143.089 36.9573 142.417 36.584C141.756 36.2 141.233 35.6667 140.849 34.984C140.476 34.2907 140.289 33.4907 140.289 32.584C140.289 31.6773 140.47 30.8827 140.833 30.2C141.206 29.5067 141.724 28.9733 142.385 28.6C143.057 28.2267 143.825 28.04 144.689 28.04C145.521 28.04 146.262 28.2213 146.913 28.584C147.564 28.9467 148.07 29.4587 148.433 30.12C148.796 30.7707 148.977 31.5227 148.977 32.376ZM147.073 31.8C147.062 31.128 146.822 30.5893 146.353 30.184C145.884 29.7787 145.302 29.576 144.609 29.576C143.98 29.576 143.441 29.7787 142.993 30.184C142.545 30.5787 142.278 31.1173 142.193 31.8H147.073ZM157.52 32.584C157.52 31.6773 157.701 30.8827 158.064 30.2C158.437 29.5067 158.949 28.9733 159.6 28.6C160.251 28.2267 160.997 28.04 161.84 28.04C162.907 28.04 163.787 28.296 164.48 28.808C165.184 29.3093 165.659 30.0293 165.904 30.968H163.936C163.776 30.5307 163.52 30.1893 163.168 29.944C162.816 29.6987 162.373 29.576 161.84 29.576C161.093 29.576 160.496 29.8427 160.048 30.376C159.611 30.8987 159.392 31.6347 159.392 32.584C159.392 33.5333 159.611 34.2747 160.048 34.808C160.496 35.3413 161.093 35.608 161.84 35.608C162.896 35.608 163.595 35.144 163.936 34.216H165.904C165.648 35.112 165.168 35.8267 164.464 36.36C163.76 36.8827 162.885 37.144 161.84 37.144C160.997 37.144 160.251 36.9573 159.6 36.584C158.949 36.2 158.437 35.6667 158.064 34.984C157.701 34.2907 157.52 33.4907 157.52 32.584ZM173.146 37.144C172.314 37.144 171.562 36.9573 170.89 36.584C170.218 36.2 169.69 35.6667 169.306 34.984C168.922 34.2907 168.73 33.4907 168.73 32.584C168.73 31.688 168.927 30.8933 169.322 30.2C169.717 29.5067 170.255 28.9733 170.938 28.6C171.621 28.2267 172.383 28.04 173.226 28.04C174.069 28.04 174.831 28.2267 175.514 28.6C176.197 28.9733 176.735 29.5067 177.13 30.2C177.525 30.8933 177.722 31.688 177.722 32.584C177.722 33.48 177.519 34.2747 177.114 34.968C176.709 35.6613 176.154 36.2 175.45 36.584C174.757 36.9573 173.989 37.144 173.146 37.144ZM173.146 35.56C173.615 35.56 174.053 35.448 174.458 35.224C174.874 35 175.21 34.664 175.466 34.216C175.722 33.768 175.85 33.224 175.85 32.584C175.85 31.944 175.727 31.4053 175.482 30.968C175.237 30.52 174.911 30.184 174.506 29.96C174.101 29.736 173.663 29.624 173.194 29.624C172.725 29.624 172.287 29.736 171.882 29.96C171.487 30.184 171.173 30.52 170.938 30.968C170.703 31.4053 170.586 31.944 170.586 32.584C170.586 33.5333 170.826 34.2693 171.306 34.792C171.797 35.304 172.41 35.56 173.146 35.56ZM185.573 28.04C186.266 28.04 186.885 28.184 187.429 28.472C187.984 28.76 188.416 29.1867 188.725 29.752C189.034 30.3173 189.189 31 189.189 31.8V37H187.381V32.072C187.381 31.2827 187.184 30.68 186.789 30.264C186.394 29.8373 185.856 29.624 185.173 29.624C184.49 29.624 183.946 29.8373 183.541 30.264C183.146 30.68 182.949 31.2827 182.949 32.072V37H181.125V28.184H182.949V29.192C183.248 28.8293 183.626 28.5467 184.085 28.344C184.554 28.1413 185.05 28.04 185.573 28.04ZM195.244 29.672V34.552C195.244 34.8827 195.318 35.1227 195.468 35.272C195.628 35.4107 195.894 35.48 196.268 35.48H197.388V37H195.948C195.126 37 194.497 36.808 194.06 36.424C193.622 36.04 193.404 35.416 193.404 34.552V29.672H192.364V28.184H193.404V25.992H195.244V28.184H197.388V29.672H195.244ZM208.749 32.376C208.749 32.7067 208.727 33.0053 208.685 33.272H201.949C202.002 33.976 202.263 34.5413 202.733 34.968C203.202 35.3947 203.778 35.608 204.461 35.608C205.442 35.608 206.135 35.1973 206.541 34.376H208.509C208.242 35.1867 207.757 35.8533 207.053 36.376C206.359 36.888 205.495 37.144 204.461 37.144C203.618 37.144 202.861 36.9573 202.189 36.584C201.527 36.2 201.005 35.6667 200.621 34.984C200.247 34.2907 200.061 33.4907 200.061 32.584C200.061 31.6773 200.242 30.8827 200.605 30.2C200.978 29.5067 201.495 28.9733 202.157 28.6C202.829 28.2267 203.597 28.04 204.461 28.04C205.293 28.04 206.034 28.2213 206.685 28.584C207.335 28.9467 207.842 29.4587 208.205 30.12C208.567 30.7707 208.749 31.5227 208.749 32.376ZM206.845 31.8C206.834 31.128 206.594 30.5893 206.125 30.184C205.655 29.7787 205.074 29.576 204.381 29.576C203.751 29.576 203.213 29.7787 202.765 30.184C202.317 30.5787 202.05 31.1173 201.965 31.8H206.845ZM216.592 28.04C217.285 28.04 217.904 28.184 218.448 28.472C219.002 28.76 219.434 29.1867 219.744 29.752C220.053 30.3173 220.208 31 220.208 31.8V37H218.4V32.072C218.4 31.2827 218.202 30.68 217.808 30.264C217.413 29.8373 216.874 29.624 216.192 29.624C215.509 29.624 214.965 29.8373 214.56 30.264C214.165 30.68 213.968 31.2827 213.968 32.072V37H212.144V28.184H213.968V29.192C214.266 28.8293 214.645 28.5467 215.104 28.344C215.573 28.1413 216.069 28.04 216.592 28.04ZM226.262 29.672V34.552C226.262 34.8827 226.337 35.1227 226.486 35.272C226.646 35.4107 226.913 35.48 227.286 35.48H228.406V37H226.966C226.145 37 225.516 36.808 225.078 36.424C224.641 36.04 224.422 35.416 224.422 34.552V29.672H223.382V28.184H224.422V25.992H226.262V28.184H228.406V29.672H226.262ZM241.268 37.144C240.436 37.144 239.684 36.9573 239.012 36.584C238.34 36.2 237.812 35.6667 237.428 34.984C237.044 34.2907 236.852 33.4907 236.852 32.584C236.852 31.688 237.049 30.8933 237.444 30.2C237.838 29.5067 238.377 28.9733 239.06 28.6C239.742 28.2267 240.505 28.04 241.348 28.04C242.19 28.04 242.953 28.2267 243.636 28.6C244.318 28.9733 244.857 29.5067 245.252 30.2C245.646 30.8933 245.844 31.688 245.844 32.584C245.844 33.48 245.641 34.2747 245.236 34.968C244.83 35.6613 244.276 36.2 243.572 36.584C242.878 36.9573 242.11 37.144 241.268 37.144ZM241.268 35.56C241.737 35.56 242.174 35.448 242.58 35.224C242.996 35 243.332 34.664 243.588 34.216C243.844 33.768 243.972 33.224 243.972 32.584C243.972 31.944 243.849 31.4053 243.604 30.968C243.358 30.52 243.033 30.184 242.628 29.96C242.222 29.736 241.785 29.624 241.316 29.624C240.846 29.624 240.409 29.736 240.004 29.96C239.609 30.184 239.294 30.52 239.06 30.968C238.825 31.4053 238.708 31.944 238.708 32.584C238.708 33.5333 238.948 34.2693 239.428 34.792C239.918 35.304 240.532 35.56 241.268 35.56ZM252.943 29.672H251.311V37H249.471V29.672H248.431V28.184H249.471V27.56C249.471 26.5467 249.738 25.8107 250.271 25.352C250.815 24.8827 251.663 24.648 252.815 24.648V26.168C252.26 26.168 251.871 26.2747 251.647 26.488C251.423 26.6907 251.311 27.048 251.311 27.56V28.184H252.943V29.672ZM261.308 32.552C261.308 31.6667 261.489 30.8827 261.852 30.2C262.225 29.5173 262.726 28.9893 263.356 28.616C263.996 28.232 264.7 28.04 265.468 28.04C266.161 28.04 266.764 28.1787 267.276 28.456C267.798 28.7227 268.214 29.0587 268.524 29.464V28.184H270.364V37H268.524V35.688C268.214 36.104 267.793 36.4507 267.26 36.728C266.726 37.0053 266.118 37.144 265.436 37.144C264.678 37.144 263.985 36.952 263.356 36.568C262.726 36.1733 262.225 35.6293 261.852 34.936C261.489 34.232 261.308 33.4373 261.308 32.552ZM268.524 32.584C268.524 31.976 268.396 31.448 268.14 31C267.894 30.552 267.569 30.2107 267.164 29.976C266.758 29.7413 266.321 29.624 265.852 29.624C265.382 29.624 264.945 29.7413 264.54 29.976C264.134 30.2 263.804 30.536 263.548 30.984C263.302 31.4213 263.18 31.944 263.18 32.552C263.18 33.16 263.302 33.6933 263.548 34.152C263.804 34.6107 264.134 34.9627 264.54 35.208C264.956 35.4427 265.393 35.56 265.852 35.56C266.321 35.56 266.758 35.4427 267.164 35.208C267.569 34.9733 267.894 34.632 268.14 34.184C268.396 33.7253 268.524 33.192 268.524 32.584ZM281.94 29.48C282.249 29.0747 282.67 28.7333 283.204 28.456C283.737 28.1787 284.34 28.04 285.012 28.04C285.78 28.04 286.478 28.232 287.108 28.616C287.748 28.9893 288.249 29.5173 288.612 30.2C288.974 30.8827 289.156 31.6667 289.156 32.552C289.156 33.4373 288.974 34.232 288.612 34.936C288.249 35.6293 287.748 36.1733 287.108 36.568C286.478 36.952 285.78 37.144 285.012 37.144C284.34 37.144 283.742 37.0107 283.22 36.744C282.697 36.4667 282.27 36.1253 281.94 35.72V41.192H280.116V28.184H281.94V29.48ZM287.3 32.552C287.3 31.944 287.172 31.4213 286.916 30.984C286.67 30.536 286.34 30.2 285.924 29.976C285.518 29.7413 285.081 29.624 284.612 29.624C284.153 29.624 283.716 29.7413 283.3 29.976C282.894 30.2107 282.564 30.552 282.308 31C282.062 31.448 281.94 31.976 281.94 32.584C281.94 33.192 282.062 33.7253 282.308 34.184C282.564 34.632 282.894 34.9733 283.3 35.208C283.716 35.4427 284.153 35.56 284.612 35.56C285.081 35.56 285.518 35.4427 285.924 35.208C286.34 34.9627 286.67 34.6107 286.916 34.152C287.172 33.6933 287.3 33.16 287.3 32.552ZM291.951 32.552C291.951 31.6667 292.133 30.8827 292.495 30.2C292.869 29.5173 293.37 28.9893 293.999 28.616C294.639 28.232 295.343 28.04 296.111 28.04C296.805 28.04 297.407 28.1787 297.919 28.456C298.442 28.7227 298.858 29.0587 299.167 29.464V28.184H301.007V37H299.167V35.688C298.858 36.104 298.437 36.4507 297.903 36.728C297.37 37.0053 296.762 37.144 296.079 37.144C295.322 37.144 294.629 36.952 293.999 36.568C293.37 36.1733 292.869 35.6293 292.495 34.936C292.133 34.232 291.951 33.4373 291.951 32.552ZM299.167 32.584C299.167 31.976 299.039 31.448 298.783 31C298.538 30.552 298.213 30.2107 297.807 29.976C297.402 29.7413 296.965 29.624 296.495 29.624C296.026 29.624 295.589 29.7413 295.183 29.976C294.778 30.2 294.447 30.536 294.191 30.984C293.946 31.4213 293.823 31.944 293.823 32.552C293.823 33.16 293.946 33.6933 294.191 34.152C294.447 34.6107 294.778 34.9627 295.183 35.208C295.599 35.4427 296.037 35.56 296.495 35.56C296.965 35.56 297.402 35.4427 297.807 35.208C298.213 34.9733 298.538 34.632 298.783 34.184C299.039 33.7253 299.167 33.192 299.167 32.584ZM308.555 28.04C309.238 28.04 309.84 28.1787 310.363 28.456C310.896 28.7227 311.312 29.0587 311.611 29.464V28.184H313.451V37.144C313.451 37.9547 313.28 38.6747 312.939 39.304C312.598 39.944 312.102 40.4453 311.451 40.808C310.811 41.1707 310.043 41.352 309.147 41.352C307.952 41.352 306.96 41.0693 306.171 40.504C305.382 39.9493 304.934 39.192 304.827 38.232H306.635C306.774 38.6907 307.067 39.0587 307.515 39.336C307.974 39.624 308.518 39.768 309.147 39.768C309.883 39.768 310.475 39.544 310.923 39.096C311.382 38.648 311.611 37.9973 311.611 37.144V35.672C311.302 36.088 310.88 36.44 310.347 36.728C309.824 37.0053 309.227 37.144 308.555 37.144C307.787 37.144 307.083 36.952 306.443 36.568C305.814 36.1733 305.312 35.6293 304.939 34.936C304.576 34.232 304.395 33.4373 304.395 32.552C304.395 31.6667 304.576 30.8827 304.939 30.2C305.312 29.5173 305.814 28.9893 306.443 28.616C307.083 28.232 307.787 28.04 308.555 28.04ZM311.611 32.584C311.611 31.976 311.483 31.448 311.227 31C310.982 30.552 310.656 30.2107 310.251 29.976C309.846 29.7413 309.408 29.624 308.939 29.624C308.47 29.624 308.032 29.7413 307.627 29.976C307.222 30.2 306.891 30.536 306.635 30.984C306.39 31.4213 306.267 31.944 306.267 32.552C306.267 33.16 306.39 33.6933 306.635 34.152C306.891 34.6107 307.222 34.9627 307.627 35.208C308.043 35.4427 308.48 35.56 308.939 35.56C309.408 35.56 309.846 35.4427 310.251 35.208C310.656 34.9733 310.982 34.632 311.227 34.184C311.483 33.7253 311.611 33.192 311.611 32.584ZM325.527 32.376C325.527 32.7067 325.506 33.0053 325.463 33.272H318.727C318.78 33.976 319.042 34.5413 319.511 34.968C319.98 35.3947 320.556 35.608 321.239 35.608C322.22 35.608 322.914 35.1973 323.319 34.376H325.287C325.02 35.1867 324.535 35.8533 323.831 36.376C323.138 36.888 322.274 37.144 321.239 37.144C320.396 37.144 319.639 36.9573 318.967 36.584C318.306 36.2 317.783 35.6667 317.399 34.984C317.026 34.2907 316.839 33.4907 316.839 32.584C316.839 31.6773 317.02 30.8827 317.383 30.2C317.756 29.5067 318.274 28.9733 318.935 28.6C319.607 28.2267 320.375 28.04 321.239 28.04C322.071 28.04 322.812 28.2213 323.463 28.584C324.114 28.9467 324.62 29.4587 324.983 30.12C325.346 30.7707 325.527 31.5227 325.527 32.376ZM323.623 31.8C323.612 31.128 323.372 30.5893 322.903 30.184C322.434 29.7787 321.852 29.576 321.159 29.576C320.53 29.576 319.991 29.7787 319.543 30.184C319.095 30.5787 318.828 31.1173 318.743 31.8H323.623ZM329.658 37.112C329.327 37.112 329.05 37 328.826 36.776C328.602 36.552 328.49 36.2747 328.49 35.944C328.49 35.6133 328.602 35.336 328.826 35.112C329.05 34.888 329.327 34.776 329.658 34.776C329.978 34.776 330.25 34.888 330.474 35.112C330.698 35.336 330.81 35.6133 330.81 35.944C330.81 36.2747 330.698 36.552 330.474 36.776C330.25 37 329.978 37.112 329.658 37.112Z" fill="#091156"/>
</svg>
