<svg width="23" height="25" viewBox="0 0 23 25" fill="none" xmlns="http://www.w3.org/2000/svg">
<path d="M5.45898 24.3589H0.923828V8.09604H5.45898V24.3589ZM3.18896 5.87763C1.73877 5.87763 0.5625 4.54007 0.5625 2.9252C0.5625 2.14952 0.839216 1.4056 1.33177 0.857115C1.82433 0.308626 2.49238 0.000488281 3.18896 0.000488281C3.88555 0.000488281 4.5536 0.308626 5.04616 0.857115C5.53871 1.4056 5.81543 2.14952 5.81543 2.9252C5.81543 4.54007 4.63867 5.87763 3.18896 5.87763ZM22.4326 24.3589H17.9072V16.4423C17.9072 14.5555 17.873 12.1359 15.5493 12.1359C13.1914 12.1359 12.8301 14.1858 12.8301 16.3063V24.3589H8.29981V8.09604H12.6494V10.3144H12.7129C13.3184 9.03669 14.7974 7.68825 17.0039 7.68825C21.5938 7.68825 22.4375 11.0539 22.4375 15.4255V24.3589H22.4326Z" fill="white"/>
</svg>
