<svg width="25" height="24" viewBox="0 0 25 24" fill="none" xmlns="http://www.w3.org/2000/svg">
<path d="M22.4302 6.24912C22.446 6.49641 22.446 6.74375 22.446 6.99103C22.446 14.5336 17.2906 23.2244 7.86802 23.2244C4.96509 23.2244 2.26841 22.2882 0 20.6632C0.412451 20.7161 0.808984 20.7338 1.2373 20.7338C3.63257 20.7338 5.83755 19.8329 7.59834 18.2962C5.3458 18.2431 3.45811 16.6004 2.80771 14.3393C3.125 14.3923 3.44224 14.4276 3.77539 14.4276C4.2354 14.4276 4.69546 14.357 5.12373 14.2334C2.77603 13.7034 1.01519 11.4071 1.01519 8.6338V8.56317C1.69727 8.98711 2.49048 9.25207 3.33115 9.28736C1.95107 8.26281 1.04692 6.51408 1.04692 4.53567C1.04692 3.47584 1.30068 2.50431 1.74487 1.65642C4.26709 5.1186 8.05835 7.37958 12.3096 7.62692C12.2303 7.20298 12.1827 6.76142 12.1827 6.3198C12.1827 3.17554 14.4669 0.614258 17.3064 0.614258C18.7816 0.614258 20.1141 1.30316 21.05 2.41601C22.208 2.16872 23.3184 1.69176 24.302 1.0382C23.9212 2.36305 23.1122 3.47589 22.0494 4.18241C23.0805 4.05882 24.0799 3.7408 24.9999 3.29924C24.302 4.4297 23.4295 5.43652 22.4302 6.24912Z" fill="white"/>
</svg>
