<svg width="25" height="20" viewBox="0 0 25 20" fill="none" xmlns="http://www.w3.org/2000/svg">
<path d="M23.8566 3.54354C23.5839 2.4005 22.7807 1.50028 21.7609 1.19478C19.9124 0.639648 12.5 0.639648 12.5 0.639648C12.5 0.639648 5.08767 0.639648 3.2391 1.19478C2.21927 1.50033 1.41606 2.4005 1.14344 3.54354C0.648132 5.61536 0.648132 9.93801 0.648132 9.93801C0.648132 9.93801 0.648132 14.2607 1.14344 16.3325C1.41606 17.4755 2.21927 18.3382 3.2391 18.6437C5.08767 19.1989 12.5 19.1989 12.5 19.1989C12.5 19.1989 19.9123 19.1989 21.7609 18.6437C22.7807 18.3382 23.5839 17.4755 23.8566 16.3325C24.3519 14.2607 24.3519 9.93801 24.3519 9.93801C24.3519 9.93801 24.3519 5.61536 23.8566 3.54354ZM10.0757 13.8627V6.01336L16.271 9.93811L10.0757 13.8627Z" fill="white"/>
</svg>
